<svg width="117" height="94" viewBox="0 0 117 94" fill="none" xmlns="http://www.w3.org/2000/svg">
<path d="M57.8994 49.9999H2.2975C-2.93566 47.8986 0.771095 32.9798 13.4178 38.6527C7.09444 23.1047 42.636 9.23794 47.215 36.5524C55.2827 29.1982 71.1666 42.6945 57.8994 49.9999Z" fill="#89DFE2"/>
<path d="M113.519 19.9999H75.5681C71.9963 18.5507 74.5263 8.26188 83.1582 12.1742C78.8422 1.45148 103.101 -8.1118 106.226 10.7257C111.733 5.65387 122.574 14.9617 113.519 19.9999Z" fill="#89DFE2"/>
<path d="M60.4582 75.2522C59.1652 69.4336 61.9667 66.6322 63.6907 64.2617C67.5696 64.2617 70.1557 64.2614 76.6206 64.2617C78.5601 64.9082 81.7926 69.4336 81.1461 74.6052C80.4067 80.5199 79.8531 81.0705 83.0856 84.9495C78.5601 85.596 76.6206 84.303 75.3276 81.7171C77.2671 86.889 71.4487 90.1214 71.4487 94.0004C71.4487 90.0672 66.1579 86.2425 66.7615 81.7171C66.2441 85.5962 62.5269 85.8546 60.4582 86.889C61.7511 84.9495 61.8675 81.5947 60.4582 75.2522Z" fill="url(#paint0_linear_1_72)"/>
<path d="M66.2014 68.7866C65.7704 70.0796 65.167 73.5707 66.2014 77.1911" stroke="#503250" stroke-width="1.29299" stroke-linecap="round" stroke-linejoin="round"/>
<path d="M74.6814 68.7866C75.1124 70.0796 75.7158 73.5707 74.6814 77.1911" stroke="#503250" stroke-width="1.29299" stroke-linecap="round" stroke-linejoin="round"/>
<path d="M54.6399 39.0479C54.564 47.8879 59.6586 59.4976 61.5453 63.4889C61.9601 64.3663 62.8468 64.9077 63.8173 64.9077H75.8461C76.8176 64.9077 77.7054 64.3642 78.1194 63.4854C79.9917 59.5111 85.0253 47.9943 85.0253 39.0479C85.0253 26.1446 76.9441 10.6021 69.8326 10.6021C62.7211 10.6021 54.7457 26.7392 54.6399 39.0479Z" fill="#EBFAFF" stroke="#503250" stroke-width="2"/>
<path d="M63.8172 64.9078H75.8461C76.8175 64.9078 77.7057 64.3637 78.1197 63.4849C78.6567 62.3449 79.4537 60.5848 80.3173 58.4429C75.3278 58.4427 64.9838 58.4429 59.3373 58.4429C60.2045 60.5844 61.0053 62.3466 61.5445 63.4873C61.9592 64.3647 62.8467 64.9078 63.8172 64.9078Z" fill="#FF7F57" stroke="#503250" stroke-width="2"/>
<path d="M69.8322 10.6021C66.3959 10.6021 62.7578 14.3699 59.9034 19.653C59.9035 21.5925 79.9168 21.5925 79.9168 19.653C77.0318 14.3314 73.3156 10.6021 69.8322 10.6021Z" fill="white" stroke="#503250" stroke-width="2"/>
<path d="M48.8214 65.5541C43.0029 52.6242 50.1144 42.2803 54.6399 42.2803C54.6399 42.2803 56.5793 52.6242 59.1653 57.7962C54.6399 59.0892 51.2389 70.9266 48.8214 65.5541Z" fill="#9586FF" stroke="#503250" stroke-width="2"/>
<path d="M91.4904 63.6148C97.3088 50.6849 90.1974 40.3409 85.6719 40.3409C85.6719 40.3409 83.7324 50.6849 81.1464 55.8569C85.6719 57.1498 89.0728 68.9872 91.4904 63.6148Z" fill="#9586FF" stroke="#503250" stroke-width="2"/>
<circle cx="70.156" cy="37.108" r="7.11146" fill="#48D3FF" stroke="#503250" stroke-width="2.58598"/>
<path fill-rule="evenodd" clip-rule="evenodd" d="M99.2191 30.3403C99.2191 32.2118 97.7057 33.7344 95.8454 33.7344C93.9851 33.7344 92.4717 32.2118 92.4717 30.3403C92.4717 28.4687 93.9851 26.9462 95.8454 26.9462C97.7057 26.9462 99.2191 28.4687 99.2191 30.3403ZM96.9698 30.3405C96.9698 29.7167 96.4653 29.2091 95.8452 29.2091C95.2252 29.2091 94.7207 29.7167 94.7207 30.3405C94.7207 30.9643 95.2252 31.4718 95.8452 31.4718C96.4653 31.4718 96.9698 30.9643 96.9698 30.3405Z" fill="#503250"/>
<path fill-rule="evenodd" clip-rule="evenodd" d="M99.926 81.2319C99.926 83.1034 98.4126 84.626 96.5523 84.626C94.692 84.626 93.1786 83.1034 93.1786 81.2319C93.1786 79.3603 94.692 77.8378 96.5523 77.8378C98.4126 77.8378 99.926 79.3603 99.926 81.2319ZM97.6771 81.232C97.6771 80.6082 97.1726 80.1006 96.5525 80.1006C95.9324 80.1006 95.4279 80.6082 95.4279 81.232C95.4279 81.8558 95.9324 82.3633 96.5525 82.3633C97.1726 82.3633 97.6771 81.8558 97.6771 81.232Z" fill="#503250"/>
<path fill-rule="evenodd" clip-rule="evenodd" d="M40.4482 70.8887C40.4482 72.7603 38.9348 74.2828 37.0745 74.2828C35.2142 74.2828 33.7008 72.7603 33.7008 70.8887C33.7008 69.0172 35.2142 67.4946 37.0745 67.4946C38.9348 67.4946 40.4482 69.0172 40.4482 70.8887ZM38.1994 70.8883C38.1994 70.2645 37.6948 69.7569 37.0748 69.7569C36.4547 69.7569 35.9502 70.2645 35.9502 70.8883C35.9502 71.5121 36.4547 72.0197 37.0748 72.0197C37.6948 72.0197 38.1994 71.5121 38.1994 70.8883Z" fill="#503250"/>
<path fill-rule="evenodd" clip-rule="evenodd" d="M54.6714 7.53156C54.6714 9.40312 53.158 10.9257 51.2977 10.9257C49.4374 10.9257 47.924 9.40312 47.924 7.53156C47.924 5.65999 49.4374 4.13745 51.2977 4.13745C53.158 4.13745 54.6714 5.65999 54.6714 7.53156ZM52.4223 7.53152C52.4223 6.90772 51.9178 6.40015 51.2977 6.40015C50.6776 6.40015 50.1731 6.90772 50.1731 7.53152C50.1731 8.15533 50.6776 8.66289 51.2977 8.66289C51.9178 8.66289 52.4223 8.15533 52.4223 7.53152Z" fill="#503250"/>
<defs>
<linearGradient id="paint0_linear_1_72" x1="70.8379" y1="64.2616" x2="70.8379" y2="93.3536" gradientUnits="userSpaceOnUse">
<stop stop-color="#FF9900"/>
<stop offset="1" stop-color="#FFE600"/>
</linearGradient>
</defs>
</svg>
