<svg width="12" height="15" viewBox="0 0 12 15" fill="none" xmlns="http://www.w3.org/2000/svg">
<path fill-rule="evenodd" clip-rule="evenodd" d="M10.5 0.5C11.0523 0.5 11.5 0.947715 11.5 1.5L11.5 14.1025C11.5002 14.2441 11.4258 14.375 11.3046 14.4462C11.1835 14.5174 11.034 14.518 10.9123 14.4477L6 11.6118L1.08771 14.4477C0.96602 14.518 0.816509 14.5174 0.695358 14.4462C0.574207 14.375 0.499763 14.2441 0.499999 14.1025L0.499999 1.5C0.499999 0.947716 0.947715 0.5 1.5 0.5L10.5 0.5Z" fill="white"/>
<path fill-rule="evenodd" clip-rule="evenodd" d="M6.0995 7.5L2.898 7.5C2.6775 7.5 2.5 7.7253 2.5 8.00269C2.5 8.27945 2.6775 8.50537 2.898 8.50537L6.0995 8.50537C6.32 8.50537 6.5 8.27945 6.5 8.00269C6.5 7.7253 6.32 7.5 6.0995 7.5Z" fill="#5041BC"/>
<path fill-rule="evenodd" clip-rule="evenodd" d="M2.93801 5.5022L9.06199 5.5022C9.30314 5.5022 9.5 5.27941 9.5 4.99951C9.5 4.72275 9.30314 4.49996 9.06199 4.49996L2.93801 4.49996C2.69413 4.49996 2.5 4.72275 2.5 4.99951C2.5 5.27941 2.69413 5.5022 2.93801 5.5022Z" fill="#5041BC"/>
</svg>
