<svg width="13" height="17" viewBox="0 0 13 17" fill="none" xmlns="http://www.w3.org/2000/svg">
<path fill-rule="evenodd" clip-rule="evenodd" d="M10.6722 3.01297H9.41667C9.21076 3.01297 9.04188 2.81403 9.04188 2.5743V1.44404C9.04188 0.647027 8.42101 0 7.65826 0H1.38048C0.620872 0 0 0.647027 0 1.44404V14.6231C0 15.4169 0.620872 16.0671 1.38048 16.0671H10.6722C11.435 16.0671 12.0527 15.4169 12.0527 14.6231V4.45702C12.0527 3.66 11.435 3.01297 10.6722 3.01297Z" fill="white"/>
<path fill-rule="evenodd" clip-rule="evenodd" d="M11.0502 14.6231C11.0502 14.8653 10.8807 15.0617 10.6722 15.0617H1.38049C1.17458 15.0617 1.00571 14.8653 1.00571 14.6231V1.44404C1.00571 1.20117 1.17458 1.00537 1.38049 1.00537H7.65827C7.86669 1.00537 8.03619 1.20117 8.03619 1.44404V2.5743C8.03619 3.36818 8.65392 4.01521 9.41667 4.01521H10.6722C10.8807 4.01521 11.0502 4.21415 11.0502 4.45702V14.6231Z" fill="white"/>
<path fill-rule="evenodd" clip-rule="evenodd" d="M2.51112 5.02063H6.53078C6.80763 5.02063 7.03049 4.79533 7.03049 4.51794C7.03049 4.24118 6.80763 4.01526 6.53078 4.01526H2.51112C2.23427 4.01526 2.00827 4.24118 2.00827 4.51794C2.00827 4.79533 2.23427 5.02063 2.51112 5.02063Z" fill="#5041BC"/>
<path fill-rule="evenodd" clip-rule="evenodd" d="M9.5416 6.69409H2.51112C2.23427 6.69409 2.00827 6.91688 2.00827 7.19678C2.00827 7.47354 2.23427 7.69632 2.51112 7.69632H9.5416C9.82159 7.69632 10.0445 7.47354 10.0445 7.19678C10.0445 6.91688 9.82159 6.69409 9.5416 6.69409Z" fill="#5041BC"/>
<path fill-rule="evenodd" clip-rule="evenodd" d="M9.5416 9.36987H2.51112C2.23427 9.36987 2.00827 9.59517 2.00827 9.87256C2.00827 10.1493 2.23427 10.3752 2.51112 10.3752H9.5416C9.82159 10.3752 10.0445 10.1493 10.0445 9.87256C10.0445 9.59517 9.82159 9.36987 9.5416 9.36987Z" fill="#5041BC"/>
<path fill-rule="evenodd" clip-rule="evenodd" d="M9.5416 12.0487H2.51112C2.23427 12.0487 2.00827 12.2746 2.00827 12.5514C2.00827 12.8282 2.23427 13.0541 2.51112 13.0541H9.5416C9.82159 13.0541 10.0445 12.8282 10.0445 12.5514C10.0445 12.2746 9.82159 12.0487 9.5416 12.0487Z" fill="#5041BC"/>
</svg>
