<svg width="13" height="13" viewBox="0 0 13 13" fill="none" xmlns="http://www.w3.org/2000/svg">
<path fill-rule="evenodd" clip-rule="evenodd" d="M9.3015 1.09274C10.2907 0.771219 11.3532 1.31256 11.6742 2.30148C11.9956 3.29055 11.4542 4.35284 10.4653 4.67432C9.47636 4.99567 8.41411 4.45437 8.0926 3.46529C7.77141 2.47633 8.31259 1.41393 9.3015 1.09274ZM1.09289 2.30156C1.41408 1.31265 2.47616 0.771304 3.46561 1.09266C4.45452 1.41385 4.9957 2.47642 4.67418 3.46537C4.35299 4.45445 3.29054 4.99575 2.30179 4.67428C1.31239 4.35292 0.771046 3.29064 1.09289 2.30156ZM4.40657 10.99C3.79512 11.8313 2.6176 12.0178 1.77645 11.4063C0.934968 10.7951 0.748481 9.61766 1.35977 8.77635C1.97093 7.93503 3.14841 7.7485 3.98973 8.35967C4.83109 8.97095 5.01774 10.1486 4.40657 10.99ZM8.35955 10.99C7.74855 10.1487 7.93504 8.97104 8.77639 8.35975C9.61771 7.74842 10.795 7.93511 11.4064 8.77626C12.0178 9.61758 11.8312 10.7952 10.9898 11.4066C10.1485 12.0178 8.971 11.8314 8.35955 10.99Z" fill="#5041BC"/>
<path d="M9.3015 1.09274L9.45595 1.56828L9.45605 1.56825L9.3015 1.09274ZM11.6742 2.30148L11.1986 2.45586L11.1987 2.45598L11.6742 2.30148ZM10.4653 4.67432L10.6198 5.14984L10.6199 5.14982L10.4653 4.67432ZM8.0926 3.46529L7.61705 3.61974L7.61709 3.61986L8.0926 3.46529ZM1.09289 2.30156L1.56835 2.45628L1.56844 2.45602L1.09289 2.30156ZM3.46561 1.09266L3.62006 0.617112L3.62005 0.617111L3.46561 1.09266ZM4.67418 3.46537L4.19868 3.31078L4.19863 3.31094L4.67418 3.46537ZM2.30179 4.67428L2.45639 4.19878L2.45625 4.19873L2.30179 4.67428ZM4.40657 10.99L4.81104 11.2839L4.8111 11.2838L4.40657 10.99ZM1.77645 11.4063L2.07044 11.0019L2.07027 11.0018L1.77645 11.4063ZM1.35977 8.77635L1.76427 9.07025L1.7643 9.07021L1.35977 8.77635ZM3.98973 8.35967L4.28362 7.95516L4.2836 7.95514L3.98973 8.35967ZM8.35955 10.99L7.95499 11.2839L7.95509 11.284L8.35955 10.99ZM8.77639 8.35975L9.07029 8.76426L9.07031 8.76424L8.77639 8.35975ZM11.4064 8.77626L11.0019 9.07022L11.0019 9.07022L11.4064 8.77626ZM10.9898 11.4066L11.2837 11.8111L11.2838 11.811L10.9898 11.4066ZM9.45605 1.56825C10.1827 1.33207 10.9629 1.72979 11.1986 2.45586L12.1498 2.14709C11.7434 0.89534 10.3988 0.210369 9.14695 0.617222L9.45605 1.56825ZM11.1987 2.45598C11.4347 3.18241 11.0371 3.96268 10.3107 4.19881L10.6199 5.14982C11.8713 4.743 12.5564 3.3987 12.1497 2.14698L11.1987 2.45598ZM10.3108 4.19879C9.58454 4.43478 8.80429 4.0373 8.5681 3.31072L7.61709 3.61986C8.02394 4.87144 9.36818 5.55656 10.6198 5.14984L10.3108 4.19879ZM8.56814 3.31084C8.33221 2.58439 8.72981 1.80413 9.45595 1.56828L9.14705 0.617191C7.89537 1.02373 7.2106 2.36828 7.61705 3.61974L8.56814 3.31084ZM1.56844 2.45602C1.8043 1.72982 2.58427 1.33213 3.31116 1.56821L3.62005 0.617111C2.36805 0.210483 1.02386 0.895479 0.617343 2.14711L1.56844 2.45602ZM3.31115 1.5682C4.03727 1.80404 4.43484 2.58439 4.19868 3.31078L5.14968 3.61996C5.55656 2.36844 4.87176 1.02366 3.62006 0.617112L3.31115 1.5682ZM4.19863 3.31094C3.96274 4.03734 3.18244 4.43484 2.45639 4.19878L2.14719 5.14978C3.39865 5.55667 4.74324 4.87156 5.14974 3.6198L4.19863 3.31094ZM2.45625 4.19873C1.72943 3.96267 1.33203 3.18251 1.56835 2.45628L0.617428 2.14685C0.210057 3.39877 0.895346 4.74318 2.14734 5.14982L2.45625 4.19873ZM4.00211 10.696C3.55294 11.314 2.68811 11.4509 2.07044 11.0019L1.48245 11.8107C2.54709 12.5847 4.03731 12.3485 4.81104 11.2839L4.00211 10.696ZM2.07027 11.0018C1.45228 10.5529 1.3153 9.68816 1.76427 9.07025L0.955267 8.48244C0.181659 9.54716 0.417655 11.0374 1.48262 11.8109L2.07027 11.0018ZM1.7643 9.07021C2.21315 8.45233 3.07795 8.31532 3.69586 8.7642L4.2836 7.95514C3.21888 7.18169 1.72871 7.41773 0.955239 8.48248L1.7643 9.07021ZM3.69584 8.76418C4.31385 9.21319 4.45088 10.0782 4.00204 10.6961L4.8111 11.2838C5.58459 10.2191 5.34832 8.72872 4.28362 7.95516L3.69584 8.76418ZM8.76412 10.6962C8.31534 10.0783 8.45234 9.21323 9.07029 8.76426L8.4825 7.95524C7.41774 8.72884 7.18176 10.2192 7.95499 11.2839L8.76412 10.6962ZM9.07031 8.76424C9.68813 8.31531 10.5528 8.45231 11.0019 9.07022L11.8108 8.48231C11.0372 7.41791 9.54729 7.18153 8.48248 7.95526L9.07031 8.76424ZM11.0019 9.07022C11.4509 9.68805 11.3139 10.553 10.6959 11.0021L11.2838 11.811C12.3484 11.0374 12.5847 9.54711 11.8108 8.48231L11.0019 9.07022ZM10.6959 11.0021C10.0781 11.451 9.21317 11.3141 8.76402 10.6961L7.95509 11.284C8.72883 12.3486 10.219 12.5847 11.2837 11.8111L10.6959 11.0021Z" fill="#5041BC"/>
</svg>
