<svg width="675" height="289" viewBox="0 0 675 289" fill="none" xmlns="http://www.w3.org/2000/svg">
<rect x="0.5" y="0.5" width="674" height="288" rx="20.5" fill="white" stroke="#D3CBFB"/>
<mask id="mask0_1_191" style="mask-type:luminance" maskUnits="userSpaceOnUse" x="1" y="1" width="673" height="287">
<rect x="1" y="1" width="673" height="287" fill="white"/>
</mask>
<g mask="url(#mask0_1_191)">
<path d="M32.48 35.16C31.3067 35.16 30.2987 34.9253 29.456 34.456C28.624 33.976 27.984 33.304 27.536 32.44C27.088 31.5653 26.864 30.536 26.864 29.352C26.864 28.4667 26.992 27.672 27.248 26.968C27.504 26.2533 27.872 25.6453 28.352 25.144C28.832 24.632 29.4187 24.2427 30.112 23.976C30.816 23.6987 31.6053 23.56 32.48 23.56C33.0667 23.56 33.6427 23.6347 34.208 23.784C34.7733 23.9333 35.2693 24.1467 35.696 24.424C35.92 24.5627 36.0693 24.7333 36.144 24.936C36.2187 25.128 36.2347 25.32 36.192 25.512C36.1493 25.6933 36.0587 25.848 35.92 25.976C35.792 26.104 35.6267 26.1787 35.424 26.2C35.232 26.2107 35.0187 26.1413 34.784 25.992C34.4533 25.7787 34.096 25.624 33.712 25.528C33.328 25.432 32.9387 25.384 32.544 25.384C31.7867 25.384 31.1467 25.5387 30.624 25.848C30.1013 26.1573 29.7067 26.6053 29.44 27.192C29.1733 27.7787 29.04 28.4987 29.04 29.352C29.04 30.1947 29.1733 30.9147 29.44 31.512C29.7067 32.1093 30.1013 32.5627 30.624 32.872C31.1467 33.1813 31.7867 33.336 32.544 33.336C32.9493 33.336 33.3493 33.288 33.744 33.192C34.1387 33.0853 34.512 32.9253 34.864 32.712C35.0987 32.5733 35.3067 32.5147 35.488 32.536C35.68 32.5467 35.84 32.6107 35.968 32.728C36.096 32.8453 36.1813 32.9947 36.224 33.176C36.2667 33.3467 36.256 33.528 36.192 33.72C36.128 33.9013 36 34.0613 35.808 34.2C35.3813 34.5093 34.8693 34.7493 34.272 34.92C33.6853 35.08 33.088 35.16 32.48 35.16ZM40.587 35.16C39.7017 35.16 39.035 34.9093 38.587 34.408C38.139 33.896 37.915 33.1493 37.915 32.168V24.6C37.915 24.2693 38.0003 24.0187 38.171 23.848C38.3417 23.6773 38.587 23.592 38.907 23.592C39.227 23.592 39.4723 23.6773 39.643 23.848C39.8243 24.0187 39.915 24.2693 39.915 24.6V32.072C39.915 32.5627 40.0163 32.9253 40.219 33.16C40.4323 33.3947 40.731 33.512 41.115 33.512C41.2003 33.512 41.2803 33.512 41.355 33.512C41.4297 33.5013 41.5043 33.4907 41.579 33.48C41.7283 33.4587 41.8297 33.5013 41.883 33.608C41.9363 33.704 41.963 33.9067 41.963 34.216C41.963 34.4827 41.9097 34.6907 41.803 34.84C41.6963 34.9893 41.5203 35.08 41.275 35.112C41.1683 35.1227 41.0563 35.1333 40.939 35.144C40.8217 35.1547 40.7043 35.16 40.587 35.16ZM45.6004 35.16C45.035 35.16 44.5284 35.0533 44.0804 34.84C43.643 34.616 43.2964 34.3173 43.0404 33.944C42.795 33.5707 42.6724 33.1493 42.6724 32.68C42.6724 32.104 42.8217 31.6507 43.1204 31.32C43.419 30.9787 43.9044 30.7333 44.5764 30.584C45.2484 30.4347 46.1497 30.36 47.2804 30.36H48.0804V31.512H47.2964C46.635 31.512 46.107 31.544 45.7124 31.608C45.3177 31.672 45.035 31.784 44.8644 31.944C44.7044 32.0933 44.6244 32.3067 44.6244 32.584C44.6244 32.936 44.747 33.224 44.9924 33.448C45.2377 33.672 45.579 33.784 46.0164 33.784C46.3684 33.784 46.6777 33.704 46.9444 33.544C47.2217 33.3733 47.4404 33.144 47.6004 32.856C47.7604 32.568 47.8404 32.2373 47.8404 31.864V30.024C47.8404 29.4907 47.723 29.1067 47.4884 28.872C47.2537 28.6373 46.859 28.52 46.3044 28.52C45.995 28.52 45.659 28.5573 45.2964 28.632C44.9444 28.7067 44.571 28.8347 44.1764 29.016C43.9737 29.112 43.7924 29.1387 43.6324 29.096C43.483 29.0533 43.3657 28.968 43.2804 28.84C43.195 28.7013 43.1524 28.552 43.1524 28.392C43.1524 28.232 43.195 28.0773 43.2804 27.928C43.3657 27.768 43.5097 27.6507 43.7124 27.576C44.203 27.3733 44.6724 27.2293 45.1204 27.144C45.579 27.0587 45.995 27.016 46.3684 27.016C47.1364 27.016 47.7657 27.1333 48.2564 27.368C48.7577 27.6027 49.131 27.96 49.3764 28.44C49.6217 28.9093 49.7444 29.5173 49.7444 30.264V34.104C49.7444 34.4347 49.6644 34.6907 49.5044 34.872C49.3444 35.0427 49.115 35.128 48.8164 35.128C48.5177 35.128 48.283 35.0427 48.1124 34.872C47.9524 34.6907 47.8724 34.4347 47.8724 34.104V33.336H48.0004C47.9257 33.7093 47.7764 34.0347 47.5524 34.312C47.339 34.5787 47.067 34.7867 46.7364 34.936C46.4057 35.0853 46.027 35.16 45.6004 35.16ZM52.7664 35.112C52.4464 35.112 52.201 35.016 52.0304 34.824C51.8597 34.632 51.7744 34.3653 51.7744 34.024V28.152C51.7744 27.8 51.8597 27.5333 52.0304 27.352C52.201 27.16 52.4464 27.064 52.7664 27.064C53.0864 27.064 53.3317 27.16 53.5024 27.352C53.6837 27.5333 53.7744 27.8 53.7744 28.152V34.024C53.7744 34.3653 53.689 34.632 53.5184 34.824C53.3477 35.016 53.097 35.112 52.7664 35.112ZM52.7664 25.576C52.393 25.576 52.0997 25.4853 51.8864 25.304C51.6837 25.112 51.5824 24.8507 51.5824 24.52C51.5824 24.1787 51.6837 23.9173 51.8864 23.736C52.0997 23.5547 52.393 23.464 52.7664 23.464C53.1504 23.464 53.4437 23.5547 53.6464 23.736C53.849 23.9173 53.9504 24.1787 53.9504 24.52C53.9504 24.8507 53.849 25.112 53.6464 25.304C53.4437 25.4853 53.1504 25.576 52.7664 25.576ZM56.8765 35.128C56.5565 35.128 56.3112 35.0427 56.1405 34.872C55.9698 34.6907 55.8845 34.4347 55.8845 34.104V28.056C55.8845 27.7253 55.9698 27.4747 56.1405 27.304C56.3112 27.1333 56.5512 27.048 56.8605 27.048C57.1698 27.048 57.4098 27.1333 57.5805 27.304C57.7512 27.4747 57.8365 27.7253 57.8365 28.056V29.224L57.6605 28.744C57.8738 28.2107 58.2045 27.7893 58.6525 27.48C59.1005 27.1707 59.6338 27.016 60.2525 27.016C60.8818 27.016 61.3992 27.1653 61.8045 27.464C62.2098 27.7627 62.4925 28.2213 62.6525 28.84H62.4285C62.6418 28.2747 62.9938 27.832 63.4845 27.512C63.9752 27.1813 64.5405 27.016 65.1805 27.016C65.7778 27.016 66.2685 27.1333 66.6525 27.368C67.0472 27.6027 67.3405 27.96 67.5325 28.44C67.7245 28.9093 67.8205 29.5067 67.8205 30.232V34.104C67.8205 34.4347 67.7298 34.6907 67.5485 34.872C67.3778 35.0427 67.1325 35.128 66.8125 35.128C66.4925 35.128 66.2472 35.0427 66.0765 34.872C65.9058 34.6907 65.8205 34.4347 65.8205 34.104V30.312C65.8205 29.7147 65.7192 29.2773 65.5165 29C65.3245 28.7227 64.9938 28.584 64.5245 28.584C64.0018 28.584 63.5912 28.7707 63.2925 29.144C62.9938 29.5067 62.8445 30.0133 62.8445 30.664V34.104C62.8445 34.4347 62.7592 34.6907 62.5885 34.872C62.4178 35.0427 62.1725 35.128 61.8525 35.128C61.5325 35.128 61.2818 35.0427 61.1005 34.872C60.9298 34.6907 60.8445 34.4347 60.8445 34.104V30.312C60.8445 29.7147 60.7432 29.2773 60.5405 29C60.3485 28.7227 60.0232 28.584 59.5645 28.584C59.0418 28.584 58.6312 28.7707 58.3325 29.144C58.0338 29.5067 57.8845 30.0133 57.8845 30.664V34.104C57.8845 34.7867 57.5485 35.128 56.8765 35.128ZM72.7478 35.16C72.2891 35.16 71.8038 35.112 71.2918 35.016C70.7798 34.92 70.3211 34.7547 69.9158 34.52C69.7451 34.4133 69.6224 34.2907 69.5478 34.152C69.4838 34.0027 69.4571 33.8587 69.4678 33.72C69.4891 33.5707 69.5424 33.4427 69.6278 33.336C69.7238 33.2293 69.8411 33.16 69.9798 33.128C70.1291 33.096 70.2891 33.1227 70.4598 33.208C70.8864 33.4107 71.2864 33.5547 71.6598 33.64C72.0331 33.7147 72.4011 33.752 72.7638 33.752C73.2758 33.752 73.6544 33.6667 73.8998 33.496C74.1558 33.3147 74.2838 33.08 74.2838 32.792C74.2838 32.5467 74.1984 32.36 74.0278 32.232C73.8678 32.0933 73.6224 31.992 73.2918 31.928L71.6918 31.624C71.0304 31.496 70.5238 31.256 70.1718 30.904C69.8304 30.5413 69.6598 30.0773 69.6598 29.512C69.6598 29 69.7984 28.5573 70.0758 28.184C70.3638 27.8107 70.7584 27.5227 71.2598 27.32C71.7611 27.1173 72.3371 27.016 72.9878 27.016C73.4571 27.016 73.8944 27.0693 74.2998 27.176C74.7158 27.272 75.1158 27.4267 75.4998 27.64C75.6598 27.7253 75.7664 27.8373 75.8198 27.976C75.8838 28.1147 75.8998 28.2587 75.8678 28.408C75.8358 28.5467 75.7718 28.6747 75.6758 28.792C75.5798 28.8987 75.4571 28.968 75.3078 29C75.1691 29.0213 75.0091 28.9893 74.8278 28.904C74.4971 28.7333 74.1771 28.6107 73.8678 28.536C73.5691 28.4613 73.2811 28.424 73.0038 28.424C72.4811 28.424 72.0918 28.5147 71.8358 28.696C71.5904 28.8773 71.4678 29.1173 71.4678 29.416C71.4678 29.64 71.5424 29.8267 71.6918 29.976C71.8411 30.1253 72.0704 30.2267 72.3798 30.28L73.9798 30.584C74.6731 30.712 75.1958 30.9467 75.5478 31.288C75.9104 31.6293 76.0918 32.088 76.0918 32.664C76.0918 33.4427 75.7878 34.056 75.1798 34.504C74.5718 34.9413 73.7611 35.16 72.7478 35.16ZM87.288 35.16C86.2 35.16 85.2453 34.92 84.424 34.44C83.6133 33.96 82.984 33.288 82.536 32.424C82.088 31.5493 81.864 30.5253 81.864 29.352C81.864 28.4667 81.992 27.672 82.248 26.968C82.504 26.2533 82.8667 25.6453 83.336 25.144C83.816 24.632 84.3867 24.2427 85.048 23.976C85.72 23.6987 86.4667 23.56 87.288 23.56C88.3867 23.56 89.3413 23.8 90.152 24.28C90.9627 24.7493 91.592 25.416 92.04 26.28C92.488 27.144 92.712 28.1627 92.712 29.336C92.712 30.2213 92.584 31.0213 92.328 31.736C92.072 32.4507 91.704 33.064 91.224 33.576C90.7547 34.088 90.184 34.4827 89.512 34.76C88.8507 35.0267 88.1093 35.16 87.288 35.16ZM87.288 33.4C87.9813 33.4 88.568 33.24 89.048 32.92C89.5387 32.6 89.912 32.136 90.168 31.528C90.4347 30.92 90.568 30.1947 90.568 29.352C90.568 28.072 90.28 27.08 89.704 26.376C89.1387 25.672 88.3333 25.32 87.288 25.32C86.6053 25.32 86.0187 25.48 85.528 25.8C85.0373 26.1093 84.6587 26.568 84.392 27.176C84.136 27.7733 84.008 28.4987 84.008 29.352C84.008 30.6213 84.296 31.6133 84.872 32.328C85.448 33.0427 86.2533 33.4 87.288 33.4ZM97.7705 35.128C97.5038 35.128 97.2692 35.0587 97.0665 34.92C96.8745 34.7813 96.7145 34.568 96.5865 34.28L94.0425 28.376C93.9465 28.1413 93.9092 27.9227 93.9305 27.72C93.9625 27.5173 94.0585 27.3573 94.2185 27.24C94.3892 27.112 94.6185 27.048 94.9065 27.048C95.1518 27.048 95.3492 27.1067 95.4985 27.224C95.6478 27.3307 95.7812 27.5387 95.8985 27.848L98.0585 33.24H97.5785L99.8025 27.832C99.9198 27.5333 100.053 27.3307 100.203 27.224C100.363 27.1067 100.576 27.048 100.843 27.048C101.077 27.048 101.264 27.112 101.403 27.24C101.541 27.3573 101.627 27.5173 101.659 27.72C101.691 27.912 101.653 28.1253 101.547 28.36L98.9545 34.28C98.8372 34.568 98.6772 34.7813 98.4745 34.92C98.2825 35.0587 98.0478 35.128 97.7705 35.128ZM106.74 35.16C105.854 35.16 105.092 34.9947 104.452 34.664C103.812 34.3333 103.316 33.864 102.964 33.256C102.622 32.648 102.452 31.928 102.452 31.096C102.452 30.2853 102.617 29.576 102.948 28.968C103.289 28.36 103.753 27.8853 104.34 27.544C104.937 27.192 105.614 27.016 106.372 27.016C106.926 27.016 107.422 27.1067 107.86 27.288C108.308 27.4693 108.686 27.7307 108.996 28.072C109.316 28.4133 109.556 28.8293 109.716 29.32C109.886 29.8 109.972 30.344 109.972 30.952C109.972 31.144 109.902 31.2933 109.764 31.4C109.636 31.496 109.449 31.544 109.204 31.544H104.068V30.392H108.564L108.308 30.632C108.308 30.1413 108.233 29.7307 108.084 29.4C107.945 29.0693 107.737 28.8187 107.46 28.648C107.193 28.4667 106.857 28.376 106.452 28.376C106.004 28.376 105.62 28.4827 105.3 28.696C104.99 28.8987 104.75 29.192 104.58 29.576C104.42 29.9493 104.34 30.3973 104.34 30.92V31.032C104.34 31.9067 104.542 32.5627 104.948 33C105.364 33.4267 105.972 33.64 106.772 33.64C107.049 33.64 107.358 33.608 107.7 33.544C108.052 33.4693 108.382 33.3467 108.692 33.176C108.916 33.048 109.113 32.9947 109.284 33.016C109.454 33.0267 109.588 33.0853 109.684 33.192C109.79 33.2987 109.854 33.432 109.876 33.592C109.897 33.7413 109.865 33.896 109.78 34.056C109.705 34.216 109.572 34.3547 109.38 34.472C109.006 34.7067 108.574 34.8827 108.084 35C107.604 35.1067 107.156 35.16 106.74 35.16ZM112.58 35.128C112.249 35.128 111.993 35.0427 111.812 34.872C111.641 34.6907 111.556 34.4347 111.556 34.104V28.056C111.556 27.7253 111.641 27.4747 111.812 27.304C111.982 27.1333 112.222 27.048 112.532 27.048C112.841 27.048 113.081 27.1333 113.252 27.304C113.422 27.4747 113.508 27.7253 113.508 28.056V29.064H113.348C113.497 28.424 113.79 27.9387 114.228 27.608C114.665 27.2773 115.246 27.08 115.972 27.016C116.196 26.9947 116.372 27.0533 116.5 27.192C116.638 27.32 116.718 27.5227 116.74 27.8C116.761 28.0667 116.697 28.2853 116.548 28.456C116.409 28.616 116.196 28.712 115.908 28.744L115.556 28.776C114.905 28.84 114.414 29.0427 114.084 29.384C113.753 29.7147 113.588 30.184 113.588 30.792V34.104C113.588 34.4347 113.502 34.6907 113.332 34.872C113.161 35.0427 112.91 35.128 112.58 35.128ZM125.749 35.16C125.056 35.16 124.474 35.0427 124.005 34.808C123.546 34.5733 123.205 34.232 122.981 33.784C122.757 33.3253 122.645 32.76 122.645 32.088V28.68H121.813C121.557 28.68 121.36 28.616 121.221 28.488C121.082 28.3493 121.013 28.1627 121.013 27.928C121.013 27.6827 121.082 27.496 121.221 27.368C121.36 27.24 121.557 27.176 121.813 27.176H122.645V25.72C122.645 25.3893 122.73 25.1387 122.901 24.968C123.082 24.7973 123.333 24.712 123.653 24.712C123.973 24.712 124.218 24.7973 124.389 24.968C124.56 25.1387 124.645 25.3893 124.645 25.72V27.176H126.341C126.597 27.176 126.794 27.24 126.933 27.368C127.072 27.496 127.141 27.6827 127.141 27.928C127.141 28.1627 127.072 28.3493 126.933 28.488C126.794 28.616 126.597 28.68 126.341 28.68H124.645V31.976C124.645 32.488 124.757 32.872 124.981 33.128C125.205 33.384 125.568 33.512 126.069 33.512C126.25 33.512 126.41 33.496 126.549 33.464C126.688 33.432 126.81 33.4107 126.917 33.4C127.045 33.3893 127.152 33.432 127.237 33.528C127.322 33.6133 127.365 33.7947 127.365 34.072C127.365 34.2853 127.328 34.4773 127.253 34.648C127.189 34.808 127.066 34.92 126.885 34.984C126.746 35.0267 126.565 35.064 126.341 35.096C126.117 35.1387 125.92 35.16 125.749 35.16ZM129.501 35.128C129.181 35.128 128.935 35.0427 128.765 34.872C128.594 34.6907 128.509 34.4347 128.509 34.104V24.6C128.509 24.2693 128.594 24.0187 128.765 23.848C128.935 23.6773 129.181 23.592 129.501 23.592C129.821 23.592 130.066 23.6773 130.237 23.848C130.418 24.0187 130.509 24.2693 130.509 24.6V28.744H130.285C130.519 28.1787 130.882 27.752 131.373 27.464C131.874 27.1653 132.439 27.016 133.069 27.016C133.698 27.016 134.215 27.1333 134.621 27.368C135.026 27.6027 135.33 27.96 135.533 28.44C135.735 28.9093 135.837 29.5067 135.837 30.232V34.104C135.837 34.4347 135.751 34.6907 135.581 34.872C135.41 35.0427 135.165 35.128 134.845 35.128C134.525 35.128 134.274 35.0427 134.093 34.872C133.922 34.6907 133.837 34.4347 133.837 34.104V30.328C133.837 29.72 133.719 29.2773 133.485 29C133.261 28.7227 132.909 28.584 132.429 28.584C131.842 28.584 131.373 28.7707 131.021 29.144C130.679 29.5067 130.509 29.992 130.509 30.6V34.104C130.509 34.7867 130.173 35.128 129.501 35.128ZM141.724 35.16C140.839 35.16 140.076 34.9947 139.436 34.664C138.796 34.3333 138.3 33.864 137.948 33.256C137.607 32.648 137.436 31.928 137.436 31.096C137.436 30.2853 137.601 29.576 137.932 28.968C138.273 28.36 138.737 27.8853 139.324 27.544C139.921 27.192 140.599 27.016 141.356 27.016C141.911 27.016 142.407 27.1067 142.844 27.288C143.292 27.4693 143.671 27.7307 143.98 28.072C144.3 28.4133 144.54 28.8293 144.7 29.32C144.871 29.8 144.956 30.344 144.956 30.952C144.956 31.144 144.887 31.2933 144.748 31.4C144.62 31.496 144.433 31.544 144.188 31.544H139.052V30.392H143.548L143.292 30.632C143.292 30.1413 143.217 29.7307 143.068 29.4C142.929 29.0693 142.721 28.8187 142.444 28.648C142.177 28.4667 141.841 28.376 141.436 28.376C140.988 28.376 140.604 28.4827 140.284 28.696C139.975 28.8987 139.735 29.192 139.564 29.576C139.404 29.9493 139.324 30.3973 139.324 30.92V31.032C139.324 31.9067 139.527 32.5627 139.932 33C140.348 33.4267 140.956 33.64 141.756 33.64C142.033 33.64 142.343 33.608 142.684 33.544C143.036 33.4693 143.367 33.3467 143.676 33.176C143.9 33.048 144.097 32.9947 144.268 33.016C144.439 33.0267 144.572 33.0853 144.668 33.192C144.775 33.2987 144.839 33.432 144.86 33.592C144.881 33.7413 144.849 33.896 144.764 34.056C144.689 34.216 144.556 34.3547 144.364 34.472C143.991 34.7067 143.559 34.8827 143.068 35C142.588 35.1067 142.14 35.16 141.724 35.16ZM154.788 35.128C154.457 35.128 154.201 35.0373 154.02 34.856C153.849 34.664 153.764 34.3973 153.764 34.056V29.192L154.196 30.424L150.34 25C150.201 24.808 150.137 24.6053 150.148 24.392C150.169 24.168 150.26 23.9813 150.42 23.832C150.58 23.672 150.804 23.592 151.092 23.592C151.305 23.592 151.497 23.6453 151.668 23.752C151.849 23.8587 152.02 24.024 152.18 24.248L155.044 28.312H154.596L157.476 24.248C157.646 24.0133 157.812 23.848 157.972 23.752C158.132 23.6453 158.329 23.592 158.564 23.592C158.841 23.592 159.054 23.6667 159.204 23.816C159.364 23.9547 159.444 24.1307 159.444 24.344C159.454 24.5573 159.38 24.7813 159.22 25.016L155.396 30.424L155.812 29.192V34.056C155.812 34.7707 155.47 35.128 154.788 35.128ZM163.302 35.16C162.417 35.16 161.654 34.9947 161.014 34.664C160.374 34.3333 159.878 33.864 159.526 33.256C159.185 32.648 159.014 31.928 159.014 31.096C159.014 30.2853 159.18 29.576 159.51 28.968C159.852 28.36 160.316 27.8853 160.902 27.544C161.5 27.192 162.177 27.016 162.934 27.016C163.489 27.016 163.985 27.1067 164.422 27.288C164.87 27.4693 165.249 27.7307 165.558 28.072C165.878 28.4133 166.118 28.8293 166.278 29.32C166.449 29.8 166.534 30.344 166.534 30.952C166.534 31.144 166.465 31.2933 166.326 31.4C166.198 31.496 166.012 31.544 165.766 31.544H160.63V30.392H165.126L164.87 30.632C164.87 30.1413 164.796 29.7307 164.646 29.4C164.508 29.0693 164.3 28.8187 164.022 28.648C163.756 28.4667 163.42 28.376 163.014 28.376C162.566 28.376 162.182 28.4827 161.862 28.696C161.553 28.8987 161.313 29.192 161.142 29.576C160.982 29.9493 160.902 30.3973 160.902 30.92V31.032C160.902 31.9067 161.105 32.5627 161.51 33C161.926 33.4267 162.534 33.64 163.334 33.64C163.612 33.64 163.921 33.608 164.262 33.544C164.614 33.4693 164.945 33.3467 165.254 33.176C165.478 33.048 165.676 32.9947 165.846 33.016C166.017 33.0267 166.15 33.0853 166.246 33.192C166.353 33.2987 166.417 33.432 166.438 33.592C166.46 33.7413 166.428 33.896 166.342 34.056C166.268 34.216 166.134 34.3547 165.942 34.472C165.569 34.7067 165.137 34.8827 164.646 35C164.166 35.1067 163.718 35.16 163.302 35.16ZM170.694 35.16C170.129 35.16 169.622 35.0533 169.174 34.84C168.737 34.616 168.39 34.3173 168.134 33.944C167.889 33.5707 167.766 33.1493 167.766 32.68C167.766 32.104 167.915 31.6507 168.214 31.32C168.513 30.9787 168.998 30.7333 169.67 30.584C170.342 30.4347 171.243 30.36 172.374 30.36H173.174V31.512H172.39C171.729 31.512 171.201 31.544 170.806 31.608C170.411 31.672 170.129 31.784 169.958 31.944C169.798 32.0933 169.718 32.3067 169.718 32.584C169.718 32.936 169.841 33.224 170.086 33.448C170.331 33.672 170.673 33.784 171.11 33.784C171.462 33.784 171.771 33.704 172.038 33.544C172.315 33.3733 172.534 33.144 172.694 32.856C172.854 32.568 172.934 32.2373 172.934 31.864V30.024C172.934 29.4907 172.817 29.1067 172.582 28.872C172.347 28.6373 171.953 28.52 171.398 28.52C171.089 28.52 170.753 28.5573 170.39 28.632C170.038 28.7067 169.665 28.8347 169.27 29.016C169.067 29.112 168.886 29.1387 168.726 29.096C168.577 29.0533 168.459 28.968 168.374 28.84C168.289 28.7013 168.246 28.552 168.246 28.392C168.246 28.232 168.289 28.0773 168.374 27.928C168.459 27.768 168.603 27.6507 168.806 27.576C169.297 27.3733 169.766 27.2293 170.214 27.144C170.673 27.0587 171.089 27.016 171.462 27.016C172.23 27.016 172.859 27.1333 173.35 27.368C173.851 27.6027 174.225 27.96 174.47 28.44C174.715 28.9093 174.838 29.5173 174.838 30.264V34.104C174.838 34.4347 174.758 34.6907 174.598 34.872C174.438 35.0427 174.209 35.128 173.91 35.128C173.611 35.128 173.377 35.0427 173.206 34.872C173.046 34.6907 172.966 34.4347 172.966 34.104V33.336H173.094C173.019 33.7093 172.87 34.0347 172.646 34.312C172.433 34.5787 172.161 34.7867 171.83 34.936C171.499 35.0853 171.121 35.16 170.694 35.16ZM177.892 35.128C177.561 35.128 177.305 35.0427 177.124 34.872C176.953 34.6907 176.868 34.4347 176.868 34.104V28.056C176.868 27.7253 176.953 27.4747 177.124 27.304C177.295 27.1333 177.535 27.048 177.844 27.048C178.153 27.048 178.393 27.1333 178.564 27.304C178.735 27.4747 178.82 27.7253 178.82 28.056V29.064H178.66C178.809 28.424 179.103 27.9387 179.54 27.608C179.977 27.2773 180.559 27.08 181.284 27.016C181.508 26.9947 181.684 27.0533 181.812 27.192C181.951 27.32 182.031 27.5227 182.052 27.8C182.073 28.0667 182.009 28.2853 181.86 28.456C181.721 28.616 181.508 28.712 181.22 28.744L180.868 28.776C180.217 28.84 179.727 29.0427 179.396 29.384C179.065 29.7147 178.9 30.184 178.9 30.792V34.104C178.9 34.4347 178.815 34.6907 178.644 34.872C178.473 35.0427 178.223 35.128 177.892 35.128ZM185.92 35.16C185.461 35.16 184.976 35.112 184.464 35.016C183.952 34.92 183.493 34.7547 183.088 34.52C182.917 34.4133 182.794 34.2907 182.72 34.152C182.656 34.0027 182.629 33.8587 182.64 33.72C182.661 33.5707 182.714 33.4427 182.8 33.336C182.896 33.2293 183.013 33.16 183.152 33.128C183.301 33.096 183.461 33.1227 183.632 33.208C184.058 33.4107 184.458 33.5547 184.832 33.64C185.205 33.7147 185.573 33.752 185.936 33.752C186.448 33.752 186.826 33.6667 187.072 33.496C187.328 33.3147 187.456 33.08 187.456 32.792C187.456 32.5467 187.37 32.36 187.2 32.232C187.04 32.0933 186.794 31.992 186.464 31.928L184.864 31.624C184.202 31.496 183.696 31.256 183.344 30.904C183.002 30.5413 182.832 30.0773 182.832 29.512C182.832 29 182.97 28.5573 183.248 28.184C183.536 27.8107 183.93 27.5227 184.432 27.32C184.933 27.1173 185.509 27.016 186.16 27.016C186.629 27.016 187.066 27.0693 187.472 27.176C187.888 27.272 188.288 27.4267 188.672 27.64C188.832 27.7253 188.938 27.8373 188.992 27.976C189.056 28.1147 189.072 28.2587 189.04 28.408C189.008 28.5467 188.944 28.6747 188.848 28.792C188.752 28.8987 188.629 28.968 188.48 29C188.341 29.0213 188.181 28.9893 188 28.904C187.669 28.7333 187.349 28.6107 187.04 28.536C186.741 28.4613 186.453 28.424 186.176 28.424C185.653 28.424 185.264 28.5147 185.008 28.696C184.762 28.8773 184.64 29.1173 184.64 29.416C184.64 29.64 184.714 29.8267 184.864 29.976C185.013 30.1253 185.242 30.2267 185.552 30.28L187.152 30.584C187.845 30.712 188.368 30.9467 188.72 31.288C189.082 31.6293 189.264 32.088 189.264 32.664C189.264 33.4427 188.96 34.056 188.352 34.504C187.744 34.9413 186.933 35.16 185.92 35.16Z" fill="#04103B"/>
<path d="M482.176 33.112C481.952 33.112 481.77 33.0607 481.63 32.958C481.499 32.8553 481.42 32.72 481.392 32.552C481.364 32.3747 481.397 32.1787 481.49 31.964L485.186 23.774C485.307 23.5033 485.452 23.312 485.62 23.2C485.797 23.0787 485.998 23.018 486.222 23.018C486.437 23.018 486.628 23.0787 486.796 23.2C486.973 23.312 487.123 23.5033 487.244 23.774L490.954 31.964C491.057 32.1787 491.094 32.3747 491.066 32.552C491.038 32.7293 490.959 32.8693 490.828 32.972C490.697 33.0653 490.525 33.112 490.31 33.112C490.049 33.112 489.843 33.0513 489.694 32.93C489.554 32.7993 489.428 32.6033 489.316 32.342L488.406 30.228L489.162 30.718H483.254L484.01 30.228L483.114 32.342C482.993 32.6127 482.867 32.8087 482.736 32.93C482.605 33.0513 482.419 33.112 482.176 33.112ZM486.194 25.076L484.234 29.738L483.87 29.29H488.546L488.196 29.738L486.222 25.076H486.194ZM493.196 35.632C492.916 35.632 492.701 35.5573 492.552 35.408C492.403 35.2587 492.328 35.0393 492.328 34.75V26.924C492.328 26.6347 492.403 26.4153 492.552 26.266C492.701 26.1167 492.911 26.042 493.182 26.042C493.462 26.042 493.677 26.1167 493.826 26.266C493.975 26.4153 494.05 26.6347 494.05 26.924V28.016L493.896 27.596C494.036 27.12 494.321 26.7373 494.75 26.448C495.189 26.1587 495.697 26.014 496.276 26.014C496.873 26.014 497.396 26.1587 497.844 26.448C498.301 26.7373 498.656 27.148 498.908 27.68C499.16 28.2027 499.286 28.8327 499.286 29.57C499.286 30.298 499.16 30.9327 498.908 31.474C498.656 32.006 498.306 32.4167 497.858 32.706C497.41 32.9953 496.883 33.14 496.276 33.14C495.707 33.14 495.207 33 494.778 32.72C494.349 32.4307 494.059 32.0573 493.91 31.6H494.078V34.75C494.078 35.0393 493.999 35.2587 493.84 35.408C493.691 35.5573 493.476 35.632 493.196 35.632ZM495.786 31.81C496.131 31.81 496.435 31.726 496.696 31.558C496.957 31.39 497.158 31.1427 497.298 30.816C497.447 30.48 497.522 30.0647 497.522 29.57C497.522 28.8233 497.363 28.268 497.046 27.904C496.729 27.5307 496.309 27.344 495.786 27.344C495.441 27.344 495.137 27.428 494.876 27.596C494.615 27.7547 494.409 28.002 494.26 28.338C494.12 28.6647 494.05 29.0753 494.05 29.57C494.05 30.3073 494.209 30.8673 494.526 31.25C494.843 31.6233 495.263 31.81 495.786 31.81ZM501.591 35.632C501.311 35.632 501.096 35.5573 500.947 35.408C500.797 35.2587 500.723 35.0393 500.723 34.75V26.924C500.723 26.6347 500.797 26.4153 500.947 26.266C501.096 26.1167 501.306 26.042 501.577 26.042C501.857 26.042 502.071 26.1167 502.221 26.266C502.37 26.4153 502.445 26.6347 502.445 26.924V28.016L502.291 27.596C502.431 27.12 502.715 26.7373 503.145 26.448C503.583 26.1587 504.092 26.014 504.671 26.014C505.268 26.014 505.791 26.1587 506.239 26.448C506.696 26.7373 507.051 27.148 507.303 27.68C507.555 28.2027 507.681 28.8327 507.681 29.57C507.681 30.298 507.555 30.9327 507.303 31.474C507.051 32.006 506.701 32.4167 506.253 32.706C505.805 32.9953 505.277 33.14 504.671 33.14C504.101 33.14 503.602 33 503.173 32.72C502.743 32.4307 502.454 32.0573 502.305 31.6H502.473V34.75C502.473 35.0393 502.393 35.2587 502.235 35.408C502.085 35.5573 501.871 35.632 501.591 35.632ZM504.181 31.81C504.526 31.81 504.829 31.726 505.091 31.558C505.352 31.39 505.553 31.1427 505.693 30.816C505.842 30.48 505.917 30.0647 505.917 29.57C505.917 28.8233 505.758 28.268 505.441 27.904C505.123 27.5307 504.703 27.344 504.181 27.344C503.835 27.344 503.532 27.428 503.271 27.596C503.009 27.7547 502.804 28.002 502.655 28.338C502.515 28.6647 502.445 29.0753 502.445 29.57C502.445 30.3073 502.603 30.8673 502.921 31.25C503.238 31.6233 503.658 31.81 504.181 31.81ZM510.013 33.112C509.724 33.112 509.5 33.0373 509.341 32.888C509.192 32.7293 509.117 32.5053 509.117 32.216V26.924C509.117 26.6347 509.192 26.4153 509.341 26.266C509.49 26.1167 509.7 26.042 509.971 26.042C510.242 26.042 510.452 26.1167 510.601 26.266C510.75 26.4153 510.825 26.6347 510.825 26.924V27.806H510.685C510.816 27.246 511.072 26.8213 511.455 26.532C511.838 26.2427 512.346 26.07 512.981 26.014C513.177 25.9953 513.331 26.0467 513.443 26.168C513.564 26.28 513.634 26.4573 513.653 26.7C513.672 26.9333 513.616 27.1247 513.485 27.274C513.364 27.414 513.177 27.498 512.925 27.526L512.617 27.554C512.048 27.61 511.618 27.7873 511.329 28.086C511.04 28.3753 510.895 28.786 510.895 29.318V32.216C510.895 32.5053 510.82 32.7293 510.671 32.888C510.522 33.0373 510.302 33.112 510.013 33.112ZM517.612 33.14C516.903 33.14 516.287 32.9953 515.764 32.706C515.241 32.4167 514.835 32.006 514.546 31.474C514.257 30.9327 514.112 30.298 514.112 29.57C514.112 29.0193 514.191 28.5293 514.35 28.1C514.518 27.6613 514.756 27.288 515.064 26.98C515.372 26.6627 515.741 26.4247 516.17 26.266C516.599 26.098 517.08 26.014 517.612 26.014C518.321 26.014 518.937 26.1587 519.46 26.448C519.983 26.7373 520.389 27.148 520.678 27.68C520.967 28.212 521.112 28.842 521.112 29.57C521.112 30.1207 521.028 30.6153 520.86 31.054C520.701 31.4927 520.468 31.8707 520.16 32.188C519.852 32.496 519.483 32.734 519.054 32.902C518.625 33.0607 518.144 33.14 517.612 33.14ZM517.612 31.81C517.957 31.81 518.261 31.726 518.522 31.558C518.783 31.39 518.984 31.1427 519.124 30.816C519.273 30.48 519.348 30.0647 519.348 29.57C519.348 28.8233 519.189 28.268 518.872 27.904C518.555 27.5307 518.135 27.344 517.612 27.344C517.267 27.344 516.963 27.428 516.702 27.596C516.441 27.7547 516.235 28.002 516.086 28.338C515.946 28.6647 515.876 29.0753 515.876 29.57C515.876 30.3073 516.035 30.8673 516.352 31.25C516.669 31.6233 517.089 31.81 517.612 31.81ZM525.192 33.112C524.958 33.112 524.753 33.0513 524.576 32.93C524.408 32.8087 524.268 32.622 524.156 32.37L521.93 27.204C521.846 26.9987 521.813 26.8073 521.832 26.63C521.86 26.4527 521.944 26.3127 522.084 26.21C522.233 26.098 522.434 26.042 522.686 26.042C522.9 26.042 523.073 26.0933 523.204 26.196C523.334 26.2893 523.451 26.4713 523.554 26.742L525.444 31.46H525.024L526.97 26.728C527.072 26.4667 527.189 26.2893 527.32 26.196C527.46 26.0933 527.646 26.042 527.88 26.042C528.085 26.042 528.248 26.098 528.37 26.21C528.491 26.3127 528.566 26.4527 528.594 26.63C528.622 26.798 528.589 26.9847 528.496 27.19L526.228 32.37C526.125 32.622 525.985 32.8087 525.808 32.93C525.64 33.0513 525.434 33.112 525.192 33.112ZM533.04 33.14C532.265 33.14 531.598 32.9953 531.038 32.706C530.478 32.4167 530.044 32.006 529.736 31.474C529.437 30.942 529.288 30.312 529.288 29.584C529.288 28.8747 529.433 28.254 529.722 27.722C530.021 27.19 530.427 26.7747 530.94 26.476C531.463 26.168 532.055 26.014 532.718 26.014C533.203 26.014 533.637 26.0933 534.02 26.252C534.412 26.4107 534.743 26.6393 535.014 26.938C535.294 27.2367 535.504 27.6007 535.644 28.03C535.793 28.45 535.868 28.926 535.868 29.458C535.868 29.626 535.807 29.7567 535.686 29.85C535.574 29.934 535.411 29.976 535.196 29.976H530.702V28.968H534.636L534.412 29.178C534.412 28.7487 534.347 28.3893 534.216 28.1C534.095 27.8107 533.913 27.5913 533.67 27.442C533.437 27.2833 533.143 27.204 532.788 27.204C532.396 27.204 532.06 27.2973 531.78 27.484C531.509 27.6613 531.299 27.918 531.15 28.254C531.01 28.5807 530.94 28.9727 530.94 29.43V29.528C530.94 30.2933 531.117 30.8673 531.472 31.25C531.836 31.6233 532.368 31.81 533.068 31.81C533.311 31.81 533.581 31.782 533.88 31.726C534.188 31.6607 534.477 31.5533 534.748 31.404C534.944 31.292 535.117 31.2453 535.266 31.264C535.415 31.2733 535.532 31.3247 535.616 31.418C535.709 31.5113 535.765 31.628 535.784 31.768C535.803 31.8987 535.775 32.034 535.7 32.174C535.635 32.314 535.518 32.4353 535.35 32.538C535.023 32.7433 534.645 32.8973 534.216 33C533.796 33.0933 533.404 33.14 533.04 33.14ZM539.886 33.14C539.288 33.14 538.761 32.9953 538.304 32.706C537.856 32.4167 537.506 32.006 537.254 31.474C537.002 30.9327 536.876 30.298 536.876 29.57C536.876 28.8327 537.002 28.2027 537.254 27.68C537.506 27.148 537.856 26.7373 538.304 26.448C538.761 26.1587 539.288 26.014 539.886 26.014C540.455 26.014 540.95 26.154 541.37 26.434C541.799 26.714 542.088 27.0827 542.238 27.54H542.084V23.9C542.084 23.6107 542.158 23.3913 542.308 23.242C542.457 23.0927 542.672 23.018 542.952 23.018C543.232 23.018 543.446 23.0927 543.596 23.242C543.754 23.3913 543.834 23.6107 543.834 23.9V32.216C543.834 32.5053 543.759 32.7293 543.61 32.888C543.46 33.0373 543.246 33.112 542.966 33.112C542.686 33.112 542.471 33.0373 542.322 32.888C542.172 32.7293 542.098 32.5053 542.098 32.216V31.124L542.252 31.544C542.112 32.0293 541.827 32.4167 541.398 32.706C540.968 32.9953 540.464 33.14 539.886 33.14ZM540.376 31.81C540.721 31.81 541.024 31.726 541.286 31.558C541.547 31.39 541.748 31.1427 541.888 30.816C542.037 30.48 542.112 30.0647 542.112 29.57C542.112 28.8233 541.953 28.268 541.636 27.904C541.318 27.5307 540.898 27.344 540.376 27.344C540.03 27.344 539.727 27.428 539.466 27.596C539.204 27.7547 538.999 28.002 538.85 28.338C538.71 28.6647 538.64 29.0753 538.64 29.57C538.64 30.3073 538.798 30.8673 539.116 31.25C539.433 31.6233 539.853 31.81 540.376 31.81Z" fill="#EA8F95"/>
<circle cx="470" cy="28" r="5" fill="#EA8F95"/>
<path d="M585.48 33.14C585.069 33.14 584.659 33.1073 584.248 33.042C583.837 32.986 583.45 32.8973 583.086 32.776C582.722 32.6453 582.395 32.4867 582.106 32.3C581.938 32.188 581.821 32.0527 581.756 31.894C581.691 31.7353 581.667 31.5813 581.686 31.432C581.714 31.2733 581.775 31.138 581.868 31.026C581.971 30.9047 582.097 30.83 582.246 30.802C582.395 30.774 582.559 30.816 582.736 30.928C583.147 31.1707 583.581 31.348 584.038 31.46C584.495 31.572 584.976 31.628 585.48 31.628C586.217 31.628 586.754 31.5067 587.09 31.264C587.426 31.012 587.594 30.69 587.594 30.298C587.594 29.9713 587.473 29.7147 587.23 29.528C586.997 29.3413 586.591 29.1873 586.012 29.066L584.472 28.744C583.585 28.5573 582.923 28.2447 582.484 27.806C582.055 27.358 581.84 26.77 581.84 26.042C581.84 25.5847 581.933 25.1693 582.12 24.796C582.307 24.4227 582.568 24.1007 582.904 23.83C583.249 23.5593 583.655 23.354 584.122 23.214C584.598 23.0647 585.121 22.99 585.69 22.99C586.25 22.99 586.782 23.06 587.286 23.2C587.79 23.34 588.243 23.5453 588.644 23.816C588.793 23.9187 588.891 24.0447 588.938 24.194C588.994 24.3433 589.008 24.4927 588.98 24.642C588.952 24.782 588.887 24.9033 588.784 25.006C588.681 25.1087 588.551 25.1693 588.392 25.188C588.243 25.2067 588.07 25.16 587.874 25.048C587.529 24.852 587.179 24.712 586.824 24.628C586.469 24.544 586.087 24.502 585.676 24.502C585.247 24.502 584.878 24.5627 584.57 24.684C584.262 24.8053 584.024 24.978 583.856 25.202C583.697 25.4167 583.618 25.6733 583.618 25.972C583.618 26.308 583.73 26.5787 583.954 26.784C584.178 26.98 584.561 27.134 585.102 27.246L586.628 27.568C587.552 27.764 588.238 28.072 588.686 28.492C589.143 28.912 589.372 29.472 589.372 30.172C589.372 30.62 589.279 31.026 589.092 31.39C588.915 31.754 588.653 32.0667 588.308 32.328C587.972 32.5893 587.566 32.79 587.09 32.93C586.614 33.07 586.077 33.14 585.48 33.14ZM593.22 33.14C592.651 33.14 592.179 33.0373 591.806 32.832C591.433 32.6173 591.153 32.3 590.966 31.88C590.789 31.46 590.7 30.9373 590.7 30.312V26.924C590.7 26.6253 590.775 26.406 590.924 26.266C591.073 26.1167 591.288 26.042 591.568 26.042C591.848 26.042 592.063 26.1167 592.212 26.266C592.371 26.406 592.45 26.6253 592.45 26.924V30.34C592.45 30.8253 592.548 31.1847 592.744 31.418C592.94 31.6513 593.253 31.768 593.682 31.768C594.149 31.768 594.531 31.6093 594.83 31.292C595.129 30.9653 595.278 30.536 595.278 30.004V26.924C595.278 26.6253 595.353 26.406 595.502 26.266C595.651 26.1167 595.866 26.042 596.146 26.042C596.426 26.042 596.641 26.1167 596.79 26.266C596.949 26.406 597.028 26.6253 597.028 26.924V32.216C597.028 32.8133 596.743 33.112 596.174 33.112C595.903 33.112 595.693 33.0373 595.544 32.888C595.395 32.7293 595.32 32.5053 595.32 32.216V31.152L595.516 31.572C595.32 32.076 595.021 32.4633 594.62 32.734C594.228 33.0047 593.761 33.14 593.22 33.14ZM602.797 33.14C602.219 33.14 601.71 32.9953 601.271 32.706C600.842 32.4167 600.557 32.0293 600.417 31.544L600.571 31.194V32.216C600.571 32.5053 600.497 32.7293 600.347 32.888C600.198 33.0373 599.988 33.112 599.717 33.112C599.437 33.112 599.223 33.0373 599.073 32.888C598.924 32.7293 598.849 32.5053 598.849 32.216V23.9C598.849 23.6107 598.924 23.3913 599.073 23.242C599.223 23.0927 599.437 23.018 599.717 23.018C599.997 23.018 600.212 23.0927 600.361 23.242C600.52 23.3913 600.599 23.6107 600.599 23.9V27.54H600.431C600.581 27.0827 600.87 26.714 601.299 26.434C601.729 26.154 602.228 26.014 602.797 26.014C603.404 26.014 603.931 26.1587 604.379 26.448C604.827 26.7373 605.177 27.148 605.429 27.68C605.681 28.2027 605.807 28.8327 605.807 29.57C605.807 30.298 605.681 30.9327 605.429 31.474C605.177 32.006 604.823 32.4167 604.365 32.706C603.917 32.9953 603.395 33.14 602.797 33.14ZM602.307 31.81C602.653 31.81 602.956 31.726 603.217 31.558C603.479 31.39 603.679 31.1427 603.819 30.816C603.969 30.48 604.043 30.0647 604.043 29.57C604.043 28.8233 603.885 28.268 603.567 27.904C603.25 27.5307 602.83 27.344 602.307 27.344C601.962 27.344 601.659 27.428 601.397 27.596C601.136 27.7547 600.931 28.002 600.781 28.338C600.641 28.6647 600.571 29.0753 600.571 29.57C600.571 30.3073 600.73 30.8673 601.047 31.25C601.365 31.6233 601.785 31.81 602.307 31.81ZM608.14 33.112C607.86 33.112 607.645 33.0373 607.496 32.888C607.347 32.7293 607.272 32.5053 607.272 32.216V26.924C607.272 26.6347 607.347 26.4153 607.496 26.266C607.645 26.1167 607.855 26.042 608.126 26.042C608.397 26.042 608.607 26.1167 608.756 26.266C608.905 26.4153 608.98 26.6347 608.98 26.924V27.946L608.826 27.526C609.013 27.0593 609.302 26.6907 609.694 26.42C610.086 26.1493 610.553 26.014 611.094 26.014C611.645 26.014 612.097 26.1447 612.452 26.406C612.807 26.6673 613.054 27.0687 613.194 27.61H612.998C613.185 27.1153 613.493 26.728 613.922 26.448C614.351 26.1587 614.846 26.014 615.406 26.014C615.929 26.014 616.358 26.1167 616.694 26.322C617.039 26.5273 617.296 26.84 617.464 27.26C617.632 27.6707 617.716 28.1933 617.716 28.828V32.216C617.716 32.5053 617.637 32.7293 617.478 32.888C617.329 33.0373 617.114 33.112 616.834 33.112C616.554 33.112 616.339 33.0373 616.19 32.888C616.041 32.7293 615.966 32.5053 615.966 32.216V28.898C615.966 28.3753 615.877 27.9927 615.7 27.75C615.532 27.5073 615.243 27.386 614.832 27.386C614.375 27.386 614.015 27.5493 613.754 27.876C613.493 28.1933 613.362 28.6367 613.362 29.206V32.216C613.362 32.5053 613.287 32.7293 613.138 32.888C612.989 33.0373 612.774 33.112 612.494 33.112C612.214 33.112 611.995 33.0373 611.836 32.888C611.687 32.7293 611.612 32.5053 611.612 32.216V28.898C611.612 28.3753 611.523 27.9927 611.346 27.75C611.178 27.5073 610.893 27.386 610.492 27.386C610.035 27.386 609.675 27.5493 609.414 27.876C609.153 28.1933 609.022 28.6367 609.022 29.206V32.216C609.022 32.8133 608.728 33.112 608.14 33.112ZM620.389 33.098C620.109 33.098 619.895 33.014 619.745 32.846C619.596 32.678 619.521 32.4447 619.521 32.146V27.008C619.521 26.7 619.596 26.4667 619.745 26.308C619.895 26.14 620.109 26.056 620.389 26.056C620.669 26.056 620.884 26.14 621.033 26.308C621.192 26.4667 621.271 26.7 621.271 27.008V32.146C621.271 32.4447 621.197 32.678 621.047 32.846C620.898 33.014 620.679 33.098 620.389 33.098ZM620.389 24.754C620.063 24.754 619.806 24.6747 619.619 24.516C619.442 24.348 619.353 24.1193 619.353 23.83C619.353 23.5313 619.442 23.3027 619.619 23.144C619.806 22.9853 620.063 22.906 620.389 22.906C620.725 22.906 620.982 22.9853 621.159 23.144C621.337 23.3027 621.425 23.5313 621.425 23.83C621.425 24.1193 621.337 24.348 621.159 24.516C620.982 24.6747 620.725 24.754 620.389 24.754ZM626.226 33.14C625.619 33.14 625.11 33.0373 624.7 32.832C624.298 32.6267 624 32.328 623.804 31.936C623.608 31.5347 623.51 31.04 623.51 30.452V27.47H622.782C622.558 27.47 622.385 27.414 622.264 27.302C622.142 27.1807 622.082 27.0173 622.082 26.812C622.082 26.5973 622.142 26.434 622.264 26.322C622.385 26.21 622.558 26.154 622.782 26.154H623.51V24.88C623.51 24.5907 623.584 24.3713 623.734 24.222C623.892 24.0727 624.112 23.998 624.392 23.998C624.672 23.998 624.886 24.0727 625.036 24.222C625.185 24.3713 625.26 24.5907 625.26 24.88V26.154H626.744C626.968 26.154 627.14 26.21 627.262 26.322C627.383 26.434 627.444 26.5973 627.444 26.812C627.444 27.0173 627.383 27.1807 627.262 27.302C627.14 27.414 626.968 27.47 626.744 27.47H625.26V30.354C625.26 30.802 625.358 31.138 625.554 31.362C625.75 31.586 626.067 31.698 626.506 31.698C626.664 31.698 626.804 31.684 626.926 31.656C627.047 31.628 627.154 31.6093 627.248 31.6C627.36 31.5907 627.453 31.628 627.528 31.712C627.602 31.7867 627.64 31.9453 627.64 32.188C627.64 32.3747 627.607 32.5427 627.542 32.692C627.486 32.832 627.378 32.93 627.22 32.986C627.098 33.0233 626.94 33.056 626.744 33.084C626.548 33.1213 626.375 33.14 626.226 33.14ZM631.202 33.14C630.596 33.14 630.087 33.0373 629.676 32.832C629.275 32.6267 628.976 32.328 628.78 31.936C628.584 31.5347 628.486 31.04 628.486 30.452V27.47H627.758C627.534 27.47 627.362 27.414 627.24 27.302C627.119 27.1807 627.058 27.0173 627.058 26.812C627.058 26.5973 627.119 26.434 627.24 26.322C627.362 26.21 627.534 26.154 627.758 26.154H628.486V24.88C628.486 24.5907 628.561 24.3713 628.71 24.222C628.869 24.0727 629.088 23.998 629.368 23.998C629.648 23.998 629.863 24.0727 630.012 24.222C630.162 24.3713 630.236 24.5907 630.236 24.88V26.154H631.72C631.944 26.154 632.117 26.21 632.238 26.322C632.36 26.434 632.42 26.5973 632.42 26.812C632.42 27.0173 632.36 27.1807 632.238 27.302C632.117 27.414 631.944 27.47 631.72 27.47H630.236V30.354C630.236 30.802 630.334 31.138 630.53 31.362C630.726 31.586 631.044 31.698 631.482 31.698C631.641 31.698 631.781 31.684 631.902 31.656C632.024 31.628 632.131 31.6093 632.224 31.6C632.336 31.5907 632.43 31.628 632.504 31.712C632.579 31.7867 632.616 31.9453 632.616 32.188C632.616 32.3747 632.584 32.5427 632.518 32.692C632.462 32.832 632.355 32.93 632.196 32.986C632.075 33.0233 631.916 33.056 631.72 33.084C631.524 33.1213 631.352 33.14 631.202 33.14ZM636.745 33.14C635.97 33.14 635.303 32.9953 634.743 32.706C634.183 32.4167 633.749 32.006 633.441 31.474C633.142 30.942 632.993 30.312 632.993 29.584C632.993 28.8747 633.138 28.254 633.427 27.722C633.726 27.19 634.132 26.7747 634.645 26.476C635.168 26.168 635.76 26.014 636.423 26.014C636.908 26.014 637.342 26.0933 637.725 26.252C638.117 26.4107 638.448 26.6393 638.719 26.938C638.999 27.2367 639.209 27.6007 639.349 28.03C639.498 28.45 639.573 28.926 639.573 29.458C639.573 29.626 639.512 29.7567 639.391 29.85C639.279 29.934 639.116 29.976 638.901 29.976H634.407V28.968H638.341L638.117 29.178C638.117 28.7487 638.052 28.3893 637.921 28.1C637.8 27.8107 637.618 27.5913 637.375 27.442C637.142 27.2833 636.848 27.204 636.493 27.204C636.101 27.204 635.765 27.2973 635.485 27.484C635.214 27.6613 635.004 27.918 634.855 28.254C634.715 28.5807 634.645 28.9727 634.645 29.43V29.528C634.645 30.2933 634.822 30.8673 635.177 31.25C635.541 31.6233 636.073 31.81 636.773 31.81C637.016 31.81 637.286 31.782 637.585 31.726C637.893 31.6607 638.182 31.5533 638.453 31.404C638.649 31.292 638.822 31.2453 638.971 31.264C639.12 31.2733 639.237 31.3247 639.321 31.418C639.414 31.5113 639.47 31.628 639.489 31.768C639.508 31.8987 639.48 32.034 639.405 32.174C639.34 32.314 639.223 32.4353 639.055 32.538C638.728 32.7433 638.35 32.8973 637.921 33C637.501 33.0933 637.109 33.14 636.745 33.14ZM643.591 33.14C642.993 33.14 642.466 32.9953 642.009 32.706C641.561 32.4167 641.211 32.006 640.959 31.474C640.707 30.9327 640.581 30.298 640.581 29.57C640.581 28.8327 640.707 28.2027 640.959 27.68C641.211 27.148 641.561 26.7373 642.009 26.448C642.466 26.1587 642.993 26.014 643.591 26.014C644.16 26.014 644.655 26.154 645.075 26.434C645.504 26.714 645.793 27.0827 645.943 27.54H645.789V23.9C645.789 23.6107 645.863 23.3913 646.013 23.242C646.162 23.0927 646.377 23.018 646.657 23.018C646.937 23.018 647.151 23.0927 647.301 23.242C647.459 23.3913 647.539 23.6107 647.539 23.9V32.216C647.539 32.5053 647.464 32.7293 647.315 32.888C647.165 33.0373 646.951 33.112 646.671 33.112C646.391 33.112 646.176 33.0373 646.027 32.888C645.877 32.7293 645.803 32.5053 645.803 32.216V31.124L645.957 31.544C645.817 32.0293 645.532 32.4167 645.103 32.706C644.673 32.9953 644.169 33.14 643.591 33.14ZM644.081 31.81C644.426 31.81 644.729 31.726 644.991 31.558C645.252 31.39 645.453 31.1427 645.593 30.816C645.742 30.48 645.817 30.0647 645.817 29.57C645.817 28.8233 645.658 28.268 645.341 27.904C645.023 27.5307 644.603 27.344 644.081 27.344C643.735 27.344 643.432 27.428 643.171 27.596C642.909 27.7547 642.704 28.002 642.555 28.338C642.415 28.6647 642.345 29.0753 642.345 29.57C642.345 30.3073 642.503 30.8673 642.821 31.25C643.138 31.6233 643.558 31.81 644.081 31.81Z" fill="#5041BC"/>
<circle cx="570" cy="28" r="5" fill="#5041BC"/>
<path opacity="0.70845" d="M60 137.449C60 137.449 85.81 107.844 127.607 121.209C169.404 134.574 169.404 207 244.977 207C320.551 207 296.578 104.633 357.57 103.52C418.563 102.406 405.67 207.084 458.941 207C543.841 206.865 511.84 80 583.502 80C621.924 80 639.74 116.509 648 150.378" stroke="#E26169" stroke-width="4" stroke-linecap="round" stroke-linejoin="round"/>
<path opacity="0.546456" fill-rule="evenodd" clip-rule="evenodd" d="M60.05 166.067C53.611 166.067 77.6197 159.351 109.254 159.351C160.605 159.351 164.8 192.082 225.14 192.082C279.622 192.082 286.759 96 343.584 96C399.823 96 414.12 192.082 469.773 192.082C527.917 192.082 538.682 115.143 578.332 115.143C617.983 115.143 653 155.785 653 155.785V255H60.05V166.067Z" fill="url(#paint0_linear_1_191)"/>
<g filter="url(#filter0_d_1_191)">
<path d="M60 165.362C60 165.362 71.4354 159.107 103.936 159.107C165.928 159.107 162.317 192 224.309 192C280.282 192 286.301 95 344.681 95C402.46 95 413.444 192 470.621 192C530.357 192 538.598 114.869 580.053 113.703C621.508 112.537 650 150.148 650 150.148" stroke="#5041BC" stroke-width="4" stroke-linecap="round" stroke-linejoin="round"/>
</g>
<rect x="387" y="70" width="66" height="49" rx="15" fill="url(#paint1_linear_1_191)"/>
<path d="M407.548 89C407.372 89 407.24 88.96 407.152 88.88C407.072 88.792 407.032 88.676 407.032 88.532C407.032 88.444 407.052 88.36 407.092 88.28C407.14 88.192 407.204 88.104 407.284 88.016L409.972 85.136C410.38 84.696 410.672 84.292 410.848 83.924C411.032 83.548 411.124 83.168 411.124 82.784C411.124 82.304 410.976 81.94 410.68 81.692C410.392 81.436 409.968 81.308 409.408 81.308C409.048 81.308 408.708 81.364 408.388 81.476C408.068 81.588 407.76 81.76 407.464 81.992C407.36 82.072 407.264 82.108 407.176 82.1C407.096 82.092 407.024 82.06 406.96 82.004C406.896 81.948 406.852 81.876 406.828 81.788C406.804 81.7 406.804 81.612 406.828 81.524C406.86 81.436 406.924 81.356 407.02 81.284C407.332 81.028 407.708 80.824 408.148 80.672C408.588 80.512 409.036 80.432 409.492 80.432C410.06 80.432 410.54 80.52 410.932 80.696C411.324 80.872 411.62 81.132 411.82 81.476C412.02 81.812 412.12 82.224 412.12 82.712C412.12 83.048 412.064 83.38 411.952 83.708C411.848 84.028 411.684 84.356 411.46 84.692C411.244 85.028 410.96 85.376 410.608 85.736L408.052 88.436V88.16H412.096C412.248 88.16 412.36 88.196 412.432 88.268C412.512 88.332 412.552 88.432 412.552 88.568C412.552 88.712 412.512 88.82 412.432 88.892C412.36 88.964 412.248 89 412.096 89H407.548ZM416.795 89.108C415.827 89.108 415.091 88.736 414.587 87.992C414.083 87.248 413.831 86.172 413.831 84.764C413.831 83.82 413.943 83.028 414.167 82.388C414.391 81.74 414.723 81.252 415.163 80.924C415.611 80.596 416.155 80.432 416.795 80.432C417.771 80.432 418.507 80.8 419.003 81.536C419.507 82.264 419.759 83.336 419.759 84.752C419.759 85.696 419.647 86.492 419.423 87.14C419.199 87.788 418.867 88.28 418.427 88.616C417.987 88.944 417.443 89.108 416.795 89.108ZM416.795 88.256C417.467 88.256 417.963 87.972 418.283 87.404C418.611 86.828 418.775 85.944 418.775 84.752C418.775 83.552 418.611 82.676 418.283 82.124C417.963 81.564 417.467 81.284 416.795 81.284C416.131 81.284 415.635 81.564 415.307 82.124C414.979 82.684 414.815 83.56 414.815 84.752C414.815 85.944 414.979 86.828 415.307 87.404C415.635 87.972 416.131 88.256 416.795 88.256ZM422.251 89C422.107 89 421.995 88.964 421.915 88.892C421.835 88.812 421.795 88.704 421.795 88.568C421.795 88.432 421.835 88.332 421.915 88.268C421.995 88.196 422.107 88.16 422.251 88.16H423.811V81.356H424.327L422.587 82.508C422.483 82.564 422.383 82.588 422.287 82.58C422.199 82.572 422.123 82.54 422.059 82.484C422.003 82.42 421.963 82.348 421.939 82.268C421.915 82.18 421.919 82.092 421.951 82.004C421.983 81.908 422.051 81.828 422.155 81.764L423.811 80.672C423.915 80.608 424.015 80.556 424.111 80.516C424.207 80.476 424.303 80.456 424.399 80.456C424.511 80.456 424.603 80.492 424.675 80.564C424.755 80.628 424.795 80.732 424.795 80.876V88.16H426.235C426.379 88.16 426.491 88.196 426.571 88.268C426.651 88.332 426.691 88.432 426.691 88.568C426.691 88.712 426.651 88.82 426.571 88.892C426.491 88.964 426.379 89 426.235 89H422.251ZM431.186 89.108C430.554 89.108 430.01 89.016 429.554 88.832C429.106 88.648 428.762 88.38 428.522 88.028C428.29 87.676 428.174 87.252 428.174 86.756C428.174 86.364 428.254 86.016 428.414 85.712C428.574 85.4 428.798 85.148 429.086 84.956C429.374 84.764 429.706 84.644 430.082 84.596V84.776C429.562 84.664 429.146 84.42 428.834 84.044C428.53 83.66 428.378 83.208 428.378 82.688C428.378 82.208 428.49 81.804 428.714 81.476C428.946 81.14 429.274 80.884 429.698 80.708C430.122 80.524 430.618 80.432 431.186 80.432C431.762 80.432 432.258 80.524 432.674 80.708C433.098 80.884 433.426 81.14 433.658 81.476C433.89 81.804 434.006 82.208 434.006 82.688C434.006 83.032 433.934 83.352 433.79 83.648C433.654 83.936 433.458 84.176 433.202 84.368C432.946 84.56 432.646 84.692 432.302 84.764V84.596C432.87 84.676 433.326 84.912 433.67 85.304C434.022 85.688 434.198 86.172 434.198 86.756C434.198 87.252 434.078 87.676 433.838 88.028C433.606 88.38 433.262 88.648 432.806 88.832C432.358 89.016 431.818 89.108 431.186 89.108ZM431.186 88.292C431.866 88.292 432.378 88.16 432.722 87.896C433.074 87.632 433.25 87.232 433.25 86.696C433.25 86.168 433.074 85.776 432.722 85.52C432.378 85.256 431.866 85.124 431.186 85.124C430.514 85.124 430.002 85.256 429.65 85.52C429.298 85.776 429.122 86.168 429.122 86.696C429.122 87.232 429.298 87.632 429.65 87.896C430.002 88.16 430.514 88.292 431.186 88.292ZM431.186 84.308C431.578 84.308 431.91 84.248 432.182 84.128C432.462 84 432.678 83.82 432.83 83.588C432.982 83.356 433.058 83.084 433.058 82.772C433.058 82.292 432.89 81.92 432.554 81.656C432.226 81.384 431.77 81.248 431.186 81.248C430.602 81.248 430.146 81.384 429.818 81.656C429.49 81.92 429.326 82.292 429.326 82.772C429.326 83.252 429.49 83.628 429.818 83.9C430.146 84.172 430.602 84.308 431.186 84.308Z" fill="white"/>
<path d="M420.004 108.14C419.5 108.14 418.977 108.075 418.436 107.944C417.895 107.813 417.423 107.617 417.022 107.356C416.835 107.235 416.709 107.095 416.644 106.936C416.579 106.777 416.56 106.628 416.588 106.488C416.625 106.339 416.695 106.213 416.798 106.11C416.91 106.007 417.045 105.947 417.204 105.928C417.372 105.909 417.554 105.951 417.75 106.054C418.133 106.259 418.501 106.409 418.856 106.502C419.211 106.586 419.575 106.628 419.948 106.628C420.359 106.628 420.704 106.572 420.984 106.46C421.264 106.348 421.474 106.18 421.614 105.956C421.763 105.732 421.838 105.461 421.838 105.144C421.838 104.677 421.679 104.332 421.362 104.108C421.054 103.875 420.601 103.758 420.004 103.758H419.108C418.847 103.758 418.646 103.693 418.506 103.562C418.375 103.431 418.31 103.249 418.31 103.016C418.31 102.783 418.375 102.601 418.506 102.47C418.646 102.339 418.847 102.274 419.108 102.274H419.836C420.191 102.274 420.494 102.218 420.746 102.106C420.998 101.985 421.194 101.817 421.334 101.602C421.474 101.387 421.544 101.126 421.544 100.818C421.544 100.389 421.399 100.062 421.11 99.838C420.83 99.614 420.419 99.502 419.878 99.502C419.533 99.502 419.206 99.544 418.898 99.628C418.599 99.7027 418.268 99.8473 417.904 100.062C417.736 100.165 417.573 100.207 417.414 100.188C417.265 100.169 417.139 100.109 417.036 100.006C416.933 99.9033 416.863 99.782 416.826 99.642C416.789 99.4927 416.798 99.3433 416.854 99.194C416.91 99.0353 417.027 98.9 417.204 98.788C417.605 98.5267 418.049 98.3307 418.534 98.2C419.019 98.06 419.519 97.99 420.032 97.99C420.713 97.99 421.297 98.0973 421.782 98.312C422.267 98.5173 422.636 98.816 422.888 99.208C423.149 99.5907 423.28 100.057 423.28 100.608C423.28 101 423.205 101.359 423.056 101.686C422.907 102.003 422.697 102.274 422.426 102.498C422.155 102.722 421.829 102.881 421.446 102.974V102.806C422.118 102.918 422.641 103.198 423.014 103.646C423.387 104.085 423.574 104.635 423.574 105.298C423.574 105.877 423.429 106.381 423.14 106.81C422.851 107.239 422.44 107.571 421.908 107.804C421.376 108.028 420.741 108.14 420.004 108.14ZM428.679 108.14C428.184 108.14 427.68 108.075 427.167 107.944C426.653 107.813 426.182 107.613 425.753 107.342C425.575 107.23 425.454 107.099 425.389 106.95C425.333 106.791 425.319 106.637 425.347 106.488C425.384 106.329 425.454 106.199 425.557 106.096C425.669 105.984 425.799 105.919 425.949 105.9C426.107 105.881 426.28 105.923 426.467 106.026C426.812 106.222 427.162 106.371 427.517 106.474C427.871 106.577 428.249 106.628 428.651 106.628C429.043 106.628 429.379 106.558 429.659 106.418C429.939 106.278 430.153 106.082 430.303 105.83C430.452 105.578 430.527 105.284 430.527 104.948C430.527 104.425 430.368 104.005 430.051 103.688C429.733 103.361 429.299 103.198 428.749 103.198C428.45 103.198 428.161 103.249 427.881 103.352C427.601 103.445 427.325 103.613 427.055 103.856C426.971 103.931 426.863 104.005 426.733 104.08C426.602 104.145 426.462 104.178 426.313 104.178C426.079 104.178 425.902 104.117 425.781 103.996C425.659 103.875 425.599 103.707 425.599 103.492V98.914C425.599 98.662 425.664 98.4707 425.795 98.34C425.935 98.2 426.131 98.13 426.383 98.13H430.989C431.241 98.13 431.432 98.1953 431.563 98.326C431.703 98.4473 431.773 98.6293 431.773 98.872C431.773 99.1053 431.703 99.2873 431.563 99.418C431.432 99.5487 431.241 99.614 430.989 99.614H427.349V102.75H426.887C427.129 102.423 427.451 102.171 427.853 101.994C428.254 101.817 428.693 101.728 429.169 101.728C429.794 101.728 430.335 101.863 430.793 102.134C431.259 102.395 431.619 102.764 431.871 103.24C432.132 103.707 432.263 104.253 432.263 104.878C432.263 105.522 432.118 106.091 431.829 106.586C431.539 107.071 431.124 107.454 430.583 107.734C430.051 108.005 429.416 108.14 428.679 108.14Z" fill="white"/>
<circle cx="408" cy="104" r="3" fill="white"/>
<path d="M60 71L60 232H656" stroke="#ECEAFF" stroke-width="2"/>
<path d="M60.82 259C60.596 259 60.428 258.949 60.316 258.846C60.2133 258.734 60.162 258.585 60.162 258.398C60.162 258.286 60.19 258.174 60.246 258.062C60.302 257.95 60.386 257.838 60.498 257.726L63.564 254.436C64.0307 253.941 64.3667 253.484 64.572 253.064C64.7773 252.644 64.88 252.219 64.88 251.79C64.88 251.249 64.712 250.838 64.376 250.558C64.0493 250.269 63.5687 250.124 62.934 250.124C62.542 250.124 62.164 250.189 61.8 250.32C61.4453 250.441 61.0953 250.633 60.75 250.894C60.6193 250.987 60.498 251.029 60.386 251.02C60.274 251.011 60.176 250.969 60.092 250.894C60.0173 250.81 59.9613 250.717 59.924 250.614C59.896 250.502 59.9007 250.385 59.938 250.264C59.9753 250.143 60.0547 250.04 60.176 249.956C60.5587 249.657 61.002 249.424 61.506 249.256C62.01 249.088 62.528 249.004 63.06 249.004C63.732 249.004 64.2967 249.111 64.754 249.326C65.2207 249.531 65.5753 249.835 65.818 250.236C66.0607 250.628 66.182 251.109 66.182 251.678C66.182 252.07 66.1167 252.457 65.986 252.84C65.8553 253.213 65.6593 253.596 65.398 253.988C65.146 254.38 64.8193 254.786 64.418 255.206L61.506 258.272V257.894H66.098C66.2847 257.894 66.4247 257.941 66.518 258.034C66.6207 258.127 66.672 258.263 66.672 258.44C66.672 258.617 66.6207 258.757 66.518 258.86C66.4247 258.953 66.2847 259 66.098 259H60.82ZM71.5945 259.126C70.4559 259.126 69.5879 258.692 68.9905 257.824C68.4025 256.947 68.1085 255.691 68.1085 254.058C68.1085 252.947 68.2392 252.019 68.5005 251.272C68.7712 250.525 69.1632 249.961 69.6765 249.578C70.1992 249.195 70.8385 249.004 71.5945 249.004C72.7425 249.004 73.6105 249.433 74.1985 250.292C74.7865 251.141 75.0805 252.392 75.0805 254.044C75.0805 255.136 74.9452 256.06 74.6745 256.816C74.4132 257.572 74.0259 258.146 73.5125 258.538C72.9992 258.93 72.3599 259.126 71.5945 259.126ZM71.5945 258.02C72.3412 258.02 72.8965 257.698 73.2605 257.054C73.6245 256.41 73.8065 255.407 73.8065 254.044C73.8065 252.681 73.6245 251.687 73.2605 251.062C72.9059 250.427 72.3505 250.11 71.5945 250.11C70.8479 250.11 70.2925 250.427 69.9285 251.062C69.5645 251.687 69.3825 252.681 69.3825 254.044C69.3825 255.407 69.5645 256.41 69.9285 257.054C70.2925 257.698 70.8479 258.02 71.5945 258.02ZM77.9591 259C77.7817 259 77.6417 258.949 77.5391 258.846C77.4364 258.743 77.3851 258.608 77.3851 258.44C77.3851 258.263 77.4364 258.127 77.5391 258.034C77.6417 257.941 77.7817 257.894 77.9591 257.894H79.7231V250.208H80.3951L78.3511 251.524C78.2204 251.608 78.0944 251.645 77.9731 251.636C77.8611 251.617 77.7631 251.571 77.6791 251.496C77.5951 251.412 77.5391 251.314 77.5111 251.202C77.4831 251.09 77.4877 250.978 77.5251 250.866C77.5717 250.745 77.6651 250.647 77.8051 250.572L79.7371 249.312C79.8771 249.228 80.0077 249.163 80.1291 249.116C80.2597 249.06 80.3857 249.032 80.5071 249.032C80.6471 249.032 80.7684 249.074 80.8711 249.158C80.9737 249.242 81.0251 249.377 81.0251 249.564V257.894H82.6491C82.8357 257.894 82.9757 257.941 83.0691 258.034C83.1717 258.127 83.2231 258.263 83.2231 258.44C83.2231 258.617 83.1717 258.757 83.0691 258.86C82.9757 258.953 82.8357 259 82.6491 259H77.9591ZM88.5656 259.126C88.0429 259.126 87.5156 259.051 86.9836 258.902C86.4609 258.743 85.9849 258.505 85.5556 258.188C85.4343 258.104 85.3503 258.006 85.3036 257.894C85.2663 257.773 85.2616 257.656 85.2896 257.544C85.3176 257.432 85.3736 257.339 85.4576 257.264C85.5416 257.18 85.6396 257.133 85.7516 257.124C85.8729 257.115 85.9989 257.152 86.1296 257.236C86.5029 257.497 86.8903 257.693 87.2916 257.824C87.6929 257.945 88.1129 258.006 88.5516 258.006C88.9903 258.006 89.3683 257.922 89.6856 257.754C90.0029 257.586 90.2456 257.353 90.4136 257.054C90.5909 256.755 90.6796 256.405 90.6796 256.004C90.6796 255.388 90.4976 254.884 90.1336 254.492C89.7696 254.1 89.2749 253.904 88.6496 253.904C88.2669 253.904 87.9123 253.974 87.5856 254.114C87.2683 254.245 86.9696 254.469 86.6896 254.786C86.6243 254.861 86.5403 254.926 86.4376 254.982C86.3443 255.038 86.2369 255.066 86.1156 255.066C85.9383 255.066 85.8029 255.019 85.7096 254.926C85.6163 254.823 85.5696 254.688 85.5696 254.52V249.718C85.5696 249.531 85.6209 249.387 85.7236 249.284C85.8263 249.181 85.9709 249.13 86.1576 249.13H90.8756C91.0623 249.13 91.2069 249.177 91.3096 249.27C91.4123 249.363 91.4636 249.499 91.4636 249.676C91.4636 249.853 91.4123 249.993 91.3096 250.096C91.2069 250.189 91.0623 250.236 90.8756 250.236H86.8436V253.974H86.4796C86.7316 253.601 87.0676 253.311 87.4876 253.106C87.9169 252.901 88.3883 252.798 88.9016 252.798C89.5269 252.798 90.0636 252.933 90.5116 253.204C90.9689 253.465 91.3236 253.834 91.5756 254.31C91.8276 254.777 91.9536 255.323 91.9536 255.948C91.9536 256.564 91.8136 257.115 91.5336 257.6C91.2629 258.076 90.8756 258.449 90.3716 258.72C89.8676 258.991 89.2656 259.126 88.5656 259.126Z" fill="#5041BC"/>
<path d="M25.4694 211C25.3174 211 25.1974 210.956 25.1094 210.868C25.0214 210.78 24.9774 210.664 24.9774 210.52C24.9774 210.368 25.0214 210.252 25.1094 210.172C25.1974 210.092 25.3174 210.052 25.4694 210.052H26.9814V203.464H27.5574L25.8054 204.592C25.6934 204.664 25.5854 204.696 25.4814 204.688C25.3854 204.672 25.3014 204.632 25.2294 204.568C25.1574 204.496 25.1094 204.412 25.0854 204.316C25.0614 204.22 25.0654 204.124 25.0974 204.028C25.1374 203.924 25.2174 203.84 25.3374 203.776L26.9934 202.696C27.1134 202.624 27.2254 202.568 27.3294 202.528C27.4414 202.48 27.5494 202.456 27.6534 202.456C27.7734 202.456 27.8774 202.492 27.9654 202.564C28.0534 202.636 28.0974 202.752 28.0974 202.912V210.052H29.4894C29.6494 210.052 29.7694 210.092 29.8494 210.172C29.9374 210.252 29.9814 210.368 29.9814 210.52C29.9814 210.672 29.9374 210.792 29.8494 210.88C29.7694 210.96 29.6494 211 29.4894 211H25.4694ZM34.4047 211.108C33.4287 211.108 32.6847 210.736 32.1727 209.992C31.6687 209.24 31.4167 208.164 31.4167 206.764C31.4167 205.812 31.5287 205.016 31.7527 204.376C31.9847 203.736 32.3207 203.252 32.7607 202.924C33.2087 202.596 33.7567 202.432 34.4047 202.432C35.3887 202.432 36.1327 202.8 36.6367 203.536C37.1407 204.264 37.3927 205.336 37.3927 206.752C37.3927 207.688 37.2767 208.48 37.0447 209.128C36.8207 209.776 36.4887 210.268 36.0487 210.604C35.6087 210.94 35.0607 211.108 34.4047 211.108ZM34.4047 210.16C35.0447 210.16 35.5207 209.884 35.8327 209.332C36.1447 208.78 36.3007 207.92 36.3007 206.752C36.3007 205.584 36.1447 204.732 35.8327 204.196C35.5287 203.652 35.0527 203.38 34.4047 203.38C33.7647 203.38 33.2887 203.652 32.9767 204.196C32.6647 204.732 32.5087 205.584 32.5087 206.752C32.5087 207.92 32.6647 208.78 32.9767 209.332C33.2887 209.884 33.7647 210.16 34.4047 210.16Z" fill="#5041BC"/>
<path d="M34.4047 243.108C33.4287 243.108 32.6847 242.736 32.1727 241.992C31.6687 241.24 31.4167 240.164 31.4167 238.764C31.4167 237.812 31.5287 237.016 31.7527 236.376C31.9847 235.736 32.3207 235.252 32.7607 234.924C33.2087 234.596 33.7567 234.432 34.4047 234.432C35.3887 234.432 36.1327 234.8 36.6367 235.536C37.1407 236.264 37.3927 237.336 37.3927 238.752C37.3927 239.688 37.2767 240.48 37.0447 241.128C36.8207 241.776 36.4887 242.268 36.0487 242.604C35.6087 242.94 35.0607 243.108 34.4047 243.108ZM34.4047 242.16C35.0447 242.16 35.5207 241.884 35.8327 241.332C36.1447 240.78 36.3007 239.92 36.3007 238.752C36.3007 237.584 36.1447 236.732 35.8327 236.196C35.5287 235.652 35.0527 235.38 34.4047 235.38C33.7647 235.38 33.2887 235.652 32.9767 236.196C32.6647 236.732 32.5087 237.584 32.5087 238.752C32.5087 239.92 32.6647 240.78 32.9767 241.332C33.2887 241.884 33.7647 242.16 34.4047 242.16Z" fill="#5041BC"/>
<path d="M25.1694 179C24.9774 179 24.8334 178.956 24.7374 178.868C24.6494 178.772 24.6054 178.644 24.6054 178.484C24.6054 178.388 24.6294 178.292 24.6774 178.196C24.7254 178.1 24.7974 178.004 24.8934 177.908L27.5214 175.088C27.9214 174.664 28.2094 174.272 28.3854 173.912C28.5614 173.552 28.6494 173.188 28.6494 172.82C28.6494 172.356 28.5054 172.004 28.2174 171.764C27.9374 171.516 27.5254 171.392 26.9814 171.392C26.6454 171.392 26.3214 171.448 26.0094 171.56C25.7054 171.664 25.4054 171.828 25.1094 172.052C24.9974 172.132 24.8934 172.168 24.7974 172.16C24.7014 172.152 24.6174 172.116 24.5454 172.052C24.4814 171.98 24.4334 171.9 24.4014 171.812C24.3774 171.716 24.3814 171.616 24.4134 171.512C24.4454 171.408 24.5134 171.32 24.6174 171.248C24.9454 170.992 25.3254 170.792 25.7574 170.648C26.1894 170.504 26.6334 170.432 27.0894 170.432C27.6654 170.432 28.1494 170.524 28.5414 170.708C28.9414 170.884 29.2454 171.144 29.4534 171.488C29.6614 171.824 29.7654 172.236 29.7654 172.724C29.7654 173.06 29.7094 173.392 29.5974 173.72C29.4854 174.04 29.3174 174.368 29.0934 174.704C28.8774 175.04 28.5974 175.388 28.2534 175.748L25.7574 178.376V178.052H29.6934C29.8534 178.052 29.9734 178.092 30.0534 178.172C30.1414 178.252 30.1854 178.368 30.1854 178.52C30.1854 178.672 30.1414 178.792 30.0534 178.88C29.9734 178.96 29.8534 179 29.6934 179H25.1694ZM34.4047 179.108C33.4287 179.108 32.6847 178.736 32.1727 177.992C31.6687 177.24 31.4167 176.164 31.4167 174.764C31.4167 173.812 31.5287 173.016 31.7527 172.376C31.9847 171.736 32.3207 171.252 32.7607 170.924C33.2087 170.596 33.7567 170.432 34.4047 170.432C35.3887 170.432 36.1327 170.8 36.6367 171.536C37.1407 172.264 37.3927 173.336 37.3927 174.752C37.3927 175.688 37.2767 176.48 37.0447 177.128C36.8207 177.776 36.4887 178.268 36.0487 178.604C35.6087 178.94 35.0607 179.108 34.4047 179.108ZM34.4047 178.16C35.0447 178.16 35.5207 177.884 35.8327 177.332C36.1447 176.78 36.3007 175.92 36.3007 174.752C36.3007 173.584 36.1447 172.732 35.8327 172.196C35.5287 171.652 35.0527 171.38 34.4047 171.38C33.7647 171.38 33.2887 171.652 32.9767 172.196C32.6647 172.732 32.5087 173.584 32.5087 174.752C32.5087 175.92 32.6647 176.78 32.9767 177.332C33.2887 177.884 33.7647 178.16 34.4047 178.16Z" fill="#5041BC"/>
<path d="M27.1014 147.108C26.6374 147.108 26.1734 147.044 25.7094 146.916C25.2454 146.788 24.8414 146.596 24.4974 146.34C24.3854 146.26 24.3094 146.168 24.2694 146.064C24.2294 145.96 24.2174 145.864 24.2334 145.776C24.2574 145.68 24.3054 145.6 24.3774 145.536C24.4494 145.472 24.5374 145.436 24.6414 145.428C24.7454 145.412 24.8574 145.44 24.9774 145.512C25.3214 145.736 25.6614 145.9 25.9974 146.004C26.3414 146.1 26.6974 146.148 27.0654 146.148C27.4574 146.148 27.7894 146.092 28.0614 145.98C28.3334 145.86 28.5374 145.688 28.6734 145.464C28.8174 145.232 28.8894 144.956 28.8894 144.636C28.8894 144.156 28.7334 143.796 28.4214 143.556C28.1094 143.308 27.6534 143.184 27.0534 143.184H26.2134C26.0454 143.184 25.9174 143.144 25.8294 143.064C25.7414 142.976 25.6974 142.86 25.6974 142.716C25.6974 142.564 25.7414 142.448 25.8294 142.368C25.9174 142.288 26.0454 142.248 26.2134 142.248H26.9574C27.3094 142.248 27.6094 142.188 27.8574 142.068C28.1054 141.94 28.2974 141.764 28.4334 141.54C28.5774 141.316 28.6494 141.044 28.6494 140.724C28.6494 140.292 28.5094 139.964 28.2294 139.74C27.9494 139.508 27.5454 139.392 27.0174 139.392C26.6734 139.392 26.3494 139.444 26.0454 139.548C25.7414 139.644 25.4334 139.808 25.1214 140.04C25.0174 140.112 24.9134 140.148 24.8094 140.148C24.7054 140.14 24.6174 140.104 24.5454 140.04C24.4814 139.976 24.4374 139.9 24.4134 139.812C24.3894 139.716 24.3934 139.616 24.4254 139.512C24.4574 139.408 24.5294 139.316 24.6414 139.236C24.9694 138.98 25.3454 138.784 25.7694 138.648C26.2014 138.504 26.6454 138.432 27.1014 138.432C27.6534 138.432 28.1254 138.52 28.5174 138.696C28.9174 138.872 29.2214 139.124 29.4294 139.452C29.6374 139.772 29.7414 140.16 29.7414 140.616C29.7414 140.96 29.6774 141.276 29.5494 141.564C29.4214 141.844 29.2374 142.084 28.9974 142.284C28.7654 142.476 28.4814 142.612 28.1454 142.692V142.56C28.7294 142.664 29.1814 142.908 29.5014 143.292C29.8294 143.668 29.9934 144.14 29.9934 144.708C29.9934 145.196 29.8734 145.624 29.6334 145.992C29.4014 146.352 29.0694 146.628 28.6374 146.82C28.2054 147.012 27.6934 147.108 27.1014 147.108ZM34.4047 147.108C33.4287 147.108 32.6847 146.736 32.1727 145.992C31.6687 145.24 31.4167 144.164 31.4167 142.764C31.4167 141.812 31.5287 141.016 31.7527 140.376C31.9847 139.736 32.3207 139.252 32.7607 138.924C33.2087 138.596 33.7567 138.432 34.4047 138.432C35.3887 138.432 36.1327 138.8 36.6367 139.536C37.1407 140.264 37.3927 141.336 37.3927 142.752C37.3927 143.688 37.2767 144.48 37.0447 145.128C36.8207 145.776 36.4887 146.268 36.0487 146.604C35.6087 146.94 35.0607 147.108 34.4047 147.108ZM34.4047 146.16C35.0447 146.16 35.5207 145.884 35.8327 145.332C36.1447 144.78 36.3007 143.92 36.3007 142.752C36.3007 141.584 36.1447 140.732 35.8327 140.196C35.5287 139.652 35.0527 139.38 34.4047 139.38C33.7647 139.38 33.2887 139.652 32.9767 140.196C32.6647 140.732 32.5087 141.584 32.5087 142.752C32.5087 143.92 32.6647 144.78 32.9767 145.332C33.2887 145.884 33.7647 146.16 34.4047 146.16Z" fill="#5041BC"/>
<path d="M28.6134 115.084C28.4374 115.084 28.3014 115.036 28.2054 114.94C28.1094 114.844 28.0614 114.704 28.0614 114.52V113.236H24.7254C24.5494 113.236 24.4054 113.196 24.2934 113.116C24.1894 113.036 24.1374 112.912 24.1374 112.744C24.1374 112.648 24.1614 112.548 24.2094 112.444C24.2574 112.34 24.3414 112.2 24.4614 112.024L28.0254 106.828C28.1134 106.708 28.2054 106.616 28.3014 106.552C28.4054 106.488 28.5214 106.456 28.6494 106.456C28.7934 106.456 28.9134 106.504 29.0094 106.6C29.1134 106.688 29.1654 106.828 29.1654 107.02V112.288H29.9814C30.1574 112.288 30.2894 112.328 30.3774 112.408C30.4654 112.488 30.5094 112.604 30.5094 112.756C30.5094 112.916 30.4654 113.036 30.3774 113.116C30.2894 113.196 30.1574 113.236 29.9814 113.236H29.1654V114.52C29.1654 114.704 29.1174 114.844 29.0214 114.94C28.9254 115.036 28.7894 115.084 28.6134 115.084ZM28.0614 112.288V107.848H28.3614L25.1214 112.588V112.288H28.0614ZM34.4047 115.108C33.4287 115.108 32.6847 114.736 32.1727 113.992C31.6687 113.24 31.4167 112.164 31.4167 110.764C31.4167 109.812 31.5287 109.016 31.7527 108.376C31.9847 107.736 32.3207 107.252 32.7607 106.924C33.2087 106.596 33.7567 106.432 34.4047 106.432C35.3887 106.432 36.1327 106.8 36.6367 107.536C37.1407 108.264 37.3927 109.336 37.3927 110.752C37.3927 111.688 37.2767 112.48 37.0447 113.128C36.8207 113.776 36.4887 114.268 36.0487 114.604C35.6087 114.94 35.0607 115.108 34.4047 115.108ZM34.4047 114.16C35.0447 114.16 35.5207 113.884 35.8327 113.332C36.1447 112.78 36.3007 111.92 36.3007 110.752C36.3007 109.584 36.1447 108.732 35.8327 108.196C35.5287 107.652 35.0527 107.38 34.4047 107.38C33.7647 107.38 33.2887 107.652 32.9767 108.196C32.6647 108.732 32.5087 109.584 32.5087 110.752C32.5087 111.92 32.6647 112.78 32.9767 113.332C33.2887 113.884 33.7647 114.16 34.4047 114.16Z" fill="#5041BC"/>
<path d="M27.3654 83.108C26.9174 83.108 26.4654 83.044 26.0094 82.916C25.5614 82.78 25.1534 82.576 24.7854 82.304C24.6814 82.232 24.6094 82.148 24.5694 82.052C24.5374 81.948 24.5334 81.848 24.5574 81.752C24.5814 81.656 24.6294 81.576 24.7014 81.512C24.7734 81.44 24.8574 81.4 24.9534 81.392C25.0574 81.384 25.1654 81.416 25.2774 81.488C25.5974 81.712 25.9294 81.88 26.2734 81.992C26.6174 82.096 26.9774 82.148 27.3534 82.148C27.7294 82.148 28.0534 82.076 28.3254 81.932C28.5974 81.788 28.8054 81.588 28.9494 81.332C29.1014 81.076 29.1774 80.776 29.1774 80.432C29.1774 79.904 29.0214 79.472 28.7094 79.136C28.3974 78.8 27.9734 78.632 27.4374 78.632C27.1094 78.632 26.8054 78.692 26.5254 78.812C26.2534 78.924 25.9974 79.116 25.7574 79.388C25.7014 79.452 25.6294 79.508 25.5414 79.556C25.4614 79.604 25.3694 79.628 25.2654 79.628C25.1134 79.628 24.9974 79.588 24.9174 79.508C24.8374 79.42 24.7974 79.304 24.7974 79.16V75.044C24.7974 74.884 24.8414 74.76 24.9294 74.672C25.0174 74.584 25.1414 74.54 25.3014 74.54H29.3454C29.5054 74.54 29.6294 74.58 29.7174 74.66C29.8054 74.74 29.8494 74.856 29.8494 75.008C29.8494 75.16 29.8054 75.28 29.7174 75.368C29.6294 75.448 29.5054 75.488 29.3454 75.488H25.8894V78.692H25.5774C25.7934 78.372 26.0814 78.124 26.4414 77.948C26.8094 77.772 27.2134 77.684 27.6534 77.684C28.1894 77.684 28.6494 77.8 29.0334 78.032C29.4254 78.256 29.7294 78.572 29.9454 78.98C30.1614 79.38 30.2694 79.848 30.2694 80.384C30.2694 80.912 30.1494 81.384 29.9094 81.8C29.6774 82.208 29.3454 82.528 28.9134 82.76C28.4814 82.992 27.9654 83.108 27.3654 83.108ZM34.4047 83.108C33.4287 83.108 32.6847 82.736 32.1727 81.992C31.6687 81.24 31.4167 80.164 31.4167 78.764C31.4167 77.812 31.5287 77.016 31.7527 76.376C31.9847 75.736 32.3207 75.252 32.7607 74.924C33.2087 74.596 33.7567 74.432 34.4047 74.432C35.3887 74.432 36.1327 74.8 36.6367 75.536C37.1407 76.264 37.3927 77.336 37.3927 78.752C37.3927 79.688 37.2767 80.48 37.0447 81.128C36.8207 81.776 36.4887 82.268 36.0487 82.604C35.6087 82.94 35.0607 83.108 34.4047 83.108ZM34.4047 82.16C35.0447 82.16 35.5207 81.884 35.8327 81.332C36.1447 80.78 36.3007 79.92 36.3007 78.752C36.3007 77.584 36.1447 76.732 35.8327 76.196C35.5287 75.652 35.0527 75.38 34.4047 75.38C33.7647 75.38 33.2887 75.652 32.9767 76.196C32.6647 76.732 32.5087 77.584 32.5087 78.752C32.5087 79.92 32.6647 80.78 32.9767 81.332C33.2887 81.884 33.7647 82.16 34.4047 82.16Z" fill="#5041BC"/>
<path d="M164.82 259C164.596 259 164.428 258.949 164.316 258.846C164.213 258.734 164.162 258.585 164.162 258.398C164.162 258.286 164.19 258.174 164.246 258.062C164.302 257.95 164.386 257.838 164.498 257.726L167.564 254.436C168.031 253.941 168.367 253.484 168.572 253.064C168.777 252.644 168.88 252.219 168.88 251.79C168.88 251.249 168.712 250.838 168.376 250.558C168.049 250.269 167.569 250.124 166.934 250.124C166.542 250.124 166.164 250.189 165.8 250.32C165.445 250.441 165.095 250.633 164.75 250.894C164.619 250.987 164.498 251.029 164.386 251.02C164.274 251.011 164.176 250.969 164.092 250.894C164.017 250.81 163.961 250.717 163.924 250.614C163.896 250.502 163.901 250.385 163.938 250.264C163.975 250.143 164.055 250.04 164.176 249.956C164.559 249.657 165.002 249.424 165.506 249.256C166.01 249.088 166.528 249.004 167.06 249.004C167.732 249.004 168.297 249.111 168.754 249.326C169.221 249.531 169.575 249.835 169.818 250.236C170.061 250.628 170.182 251.109 170.182 251.678C170.182 252.07 170.117 252.457 169.986 252.84C169.855 253.213 169.659 253.596 169.398 253.988C169.146 254.38 168.819 254.786 168.418 255.206L165.506 258.272V257.894H170.098C170.285 257.894 170.425 257.941 170.518 258.034C170.621 258.127 170.672 258.263 170.672 258.44C170.672 258.617 170.621 258.757 170.518 258.86C170.425 258.953 170.285 259 170.098 259H164.82ZM175.595 259.126C174.456 259.126 173.588 258.692 172.991 257.824C172.403 256.947 172.109 255.691 172.109 254.058C172.109 252.947 172.239 252.019 172.501 251.272C172.771 250.525 173.163 249.961 173.677 249.578C174.199 249.195 174.839 249.004 175.595 249.004C176.743 249.004 177.611 249.433 178.199 250.292C178.787 251.141 179.081 252.392 179.081 254.044C179.081 255.136 178.945 256.06 178.675 256.816C178.413 257.572 178.026 258.146 177.513 258.538C176.999 258.93 176.36 259.126 175.595 259.126ZM175.595 258.02C176.341 258.02 176.897 257.698 177.261 257.054C177.625 256.41 177.807 255.407 177.807 254.044C177.807 252.681 177.625 251.687 177.261 251.062C176.906 250.427 176.351 250.11 175.595 250.11C174.848 250.11 174.293 250.427 173.929 251.062C173.565 251.687 173.383 252.681 173.383 254.044C173.383 255.407 173.565 256.41 173.929 257.054C174.293 257.698 174.848 258.02 175.595 258.02ZM181.959 259C181.782 259 181.642 258.949 181.539 258.846C181.436 258.743 181.385 258.608 181.385 258.44C181.385 258.263 181.436 258.127 181.539 258.034C181.642 257.941 181.782 257.894 181.959 257.894H183.723V250.208H184.395L182.351 251.524C182.22 251.608 182.094 251.645 181.973 251.636C181.861 251.617 181.763 251.571 181.679 251.496C181.595 251.412 181.539 251.314 181.511 251.202C181.483 251.09 181.488 250.978 181.525 250.866C181.572 250.745 181.665 250.647 181.805 250.572L183.737 249.312C183.877 249.228 184.008 249.163 184.129 249.116C184.26 249.06 184.386 249.032 184.507 249.032C184.647 249.032 184.768 249.074 184.871 249.158C184.974 249.242 185.025 249.377 185.025 249.564V257.894H186.649C186.836 257.894 186.976 257.941 187.069 258.034C187.172 258.127 187.223 258.263 187.223 258.44C187.223 258.617 187.172 258.757 187.069 258.86C186.976 258.953 186.836 259 186.649 259H181.959ZM192.734 259.126C191.95 259.126 191.282 258.935 190.732 258.552C190.181 258.169 189.761 257.619 189.472 256.9C189.182 256.181 189.038 255.313 189.038 254.296C189.038 253.437 189.126 252.681 189.304 252.028C189.49 251.375 189.756 250.824 190.102 250.376C190.456 249.928 190.881 249.587 191.376 249.354C191.88 249.121 192.449 249.004 193.084 249.004C193.513 249.004 193.952 249.083 194.4 249.242C194.848 249.391 195.249 249.62 195.604 249.928C195.706 250.003 195.772 250.101 195.8 250.222C195.837 250.334 195.842 250.446 195.814 250.558C195.786 250.661 195.73 250.749 195.646 250.824C195.571 250.899 195.478 250.941 195.366 250.95C195.254 250.959 195.132 250.922 195.002 250.838C194.684 250.586 194.362 250.404 194.036 250.292C193.709 250.18 193.382 250.124 193.056 250.124C192.468 250.124 191.968 250.273 191.558 250.572C191.147 250.861 190.834 251.295 190.62 251.874C190.405 252.453 190.298 253.176 190.298 254.044V255.29H190.158C190.223 254.767 190.377 254.319 190.62 253.946C190.872 253.573 191.198 253.283 191.6 253.078C192.001 252.873 192.444 252.77 192.93 252.77C193.508 252.77 194.017 252.905 194.456 253.176C194.904 253.447 195.254 253.815 195.506 254.282C195.767 254.749 195.898 255.29 195.898 255.906C195.898 256.522 195.762 257.077 195.492 257.572C195.221 258.057 194.848 258.44 194.372 258.72C193.896 258.991 193.35 259.126 192.734 259.126ZM192.65 258.048C193.051 258.048 193.401 257.959 193.7 257.782C193.998 257.605 194.232 257.357 194.4 257.04C194.577 256.723 194.666 256.359 194.666 255.948C194.666 255.537 194.577 255.173 194.4 254.856C194.232 254.539 193.998 254.291 193.7 254.114C193.401 253.937 193.051 253.848 192.65 253.848C192.248 253.848 191.898 253.937 191.6 254.114C191.301 254.291 191.063 254.539 190.886 254.856C190.718 255.173 190.634 255.537 190.634 255.948C190.634 256.359 190.718 256.723 190.886 257.04C191.063 257.357 191.301 257.605 191.6 257.782C191.898 257.959 192.248 258.048 192.65 258.048Z" fill="#5041BC"/>
<path d="M268.82 259C268.596 259 268.428 258.949 268.316 258.846C268.213 258.734 268.162 258.585 268.162 258.398C268.162 258.286 268.19 258.174 268.246 258.062C268.302 257.95 268.386 257.838 268.498 257.726L271.564 254.436C272.031 253.941 272.367 253.484 272.572 253.064C272.777 252.644 272.88 252.219 272.88 251.79C272.88 251.249 272.712 250.838 272.376 250.558C272.049 250.269 271.569 250.124 270.934 250.124C270.542 250.124 270.164 250.189 269.8 250.32C269.445 250.441 269.095 250.633 268.75 250.894C268.619 250.987 268.498 251.029 268.386 251.02C268.274 251.011 268.176 250.969 268.092 250.894C268.017 250.81 267.961 250.717 267.924 250.614C267.896 250.502 267.901 250.385 267.938 250.264C267.975 250.143 268.055 250.04 268.176 249.956C268.559 249.657 269.002 249.424 269.506 249.256C270.01 249.088 270.528 249.004 271.06 249.004C271.732 249.004 272.297 249.111 272.754 249.326C273.221 249.531 273.575 249.835 273.818 250.236C274.061 250.628 274.182 251.109 274.182 251.678C274.182 252.07 274.117 252.457 273.986 252.84C273.855 253.213 273.659 253.596 273.398 253.988C273.146 254.38 272.819 254.786 272.418 255.206L269.506 258.272V257.894H274.098C274.285 257.894 274.425 257.941 274.518 258.034C274.621 258.127 274.672 258.263 274.672 258.44C274.672 258.617 274.621 258.757 274.518 258.86C274.425 258.953 274.285 259 274.098 259H268.82ZM279.595 259.126C278.456 259.126 277.588 258.692 276.991 257.824C276.403 256.947 276.109 255.691 276.109 254.058C276.109 252.947 276.239 252.019 276.501 251.272C276.771 250.525 277.163 249.961 277.677 249.578C278.199 249.195 278.839 249.004 279.595 249.004C280.743 249.004 281.611 249.433 282.199 250.292C282.787 251.141 283.081 252.392 283.081 254.044C283.081 255.136 282.945 256.06 282.675 256.816C282.413 257.572 282.026 258.146 281.513 258.538C280.999 258.93 280.36 259.126 279.595 259.126ZM279.595 258.02C280.341 258.02 280.897 257.698 281.261 257.054C281.625 256.41 281.807 255.407 281.807 254.044C281.807 252.681 281.625 251.687 281.261 251.062C280.906 250.427 280.351 250.11 279.595 250.11C278.848 250.11 278.293 250.427 277.929 251.062C277.565 251.687 277.383 252.681 277.383 254.044C277.383 255.407 277.565 256.41 277.929 257.054C278.293 257.698 278.848 258.02 279.595 258.02ZM285.959 259C285.782 259 285.642 258.949 285.539 258.846C285.436 258.743 285.385 258.608 285.385 258.44C285.385 258.263 285.436 258.127 285.539 258.034C285.642 257.941 285.782 257.894 285.959 257.894H287.723V250.208H288.395L286.351 251.524C286.22 251.608 286.094 251.645 285.973 251.636C285.861 251.617 285.763 251.571 285.679 251.496C285.595 251.412 285.539 251.314 285.511 251.202C285.483 251.09 285.488 250.978 285.525 250.866C285.572 250.745 285.665 250.647 285.805 250.572L287.737 249.312C287.877 249.228 288.008 249.163 288.129 249.116C288.26 249.06 288.386 249.032 288.507 249.032C288.647 249.032 288.768 249.074 288.871 249.158C288.974 249.242 289.025 249.377 289.025 249.564V257.894H290.649C290.836 257.894 290.976 257.941 291.069 258.034C291.172 258.127 291.223 258.263 291.223 258.44C291.223 258.617 291.172 258.757 291.069 258.86C290.976 258.953 290.836 259 290.649 259H285.959ZM294.55 259.098C294.4 259.098 294.27 259.061 294.158 258.986C294.055 258.911 293.99 258.813 293.962 258.692C293.943 258.561 293.976 258.412 294.06 258.244L298.498 249.718V250.236H293.57C293.383 250.236 293.238 250.189 293.136 250.096C293.033 249.993 292.982 249.858 292.982 249.69C292.982 249.513 293.033 249.377 293.136 249.284C293.238 249.181 293.383 249.13 293.57 249.13H299.1C299.286 249.13 299.436 249.181 299.548 249.284C299.669 249.377 299.73 249.513 299.73 249.69C299.73 249.839 299.711 249.97 299.674 250.082C299.636 250.185 299.58 250.306 299.506 250.446L295.278 258.664C295.203 258.813 295.105 258.925 294.984 259C294.872 259.065 294.727 259.098 294.55 259.098Z" fill="#5041BC"/>
<path d="M372.82 259C372.596 259 372.428 258.949 372.316 258.846C372.213 258.734 372.162 258.585 372.162 258.398C372.162 258.286 372.19 258.174 372.246 258.062C372.302 257.95 372.386 257.838 372.498 257.726L375.564 254.436C376.031 253.941 376.367 253.484 376.572 253.064C376.777 252.644 376.88 252.219 376.88 251.79C376.88 251.249 376.712 250.838 376.376 250.558C376.049 250.269 375.569 250.124 374.934 250.124C374.542 250.124 374.164 250.189 373.8 250.32C373.445 250.441 373.095 250.633 372.75 250.894C372.619 250.987 372.498 251.029 372.386 251.02C372.274 251.011 372.176 250.969 372.092 250.894C372.017 250.81 371.961 250.717 371.924 250.614C371.896 250.502 371.901 250.385 371.938 250.264C371.975 250.143 372.055 250.04 372.176 249.956C372.559 249.657 373.002 249.424 373.506 249.256C374.01 249.088 374.528 249.004 375.06 249.004C375.732 249.004 376.297 249.111 376.754 249.326C377.221 249.531 377.575 249.835 377.818 250.236C378.061 250.628 378.182 251.109 378.182 251.678C378.182 252.07 378.117 252.457 377.986 252.84C377.855 253.213 377.659 253.596 377.398 253.988C377.146 254.38 376.819 254.786 376.418 255.206L373.506 258.272V257.894H378.098C378.285 257.894 378.425 257.941 378.518 258.034C378.621 258.127 378.672 258.263 378.672 258.44C378.672 258.617 378.621 258.757 378.518 258.86C378.425 258.953 378.285 259 378.098 259H372.82ZM383.595 259.126C382.456 259.126 381.588 258.692 380.991 257.824C380.403 256.947 380.109 255.691 380.109 254.058C380.109 252.947 380.239 252.019 380.501 251.272C380.771 250.525 381.163 249.961 381.677 249.578C382.199 249.195 382.839 249.004 383.595 249.004C384.743 249.004 385.611 249.433 386.199 250.292C386.787 251.141 387.081 252.392 387.081 254.044C387.081 255.136 386.945 256.06 386.675 256.816C386.413 257.572 386.026 258.146 385.513 258.538C384.999 258.93 384.36 259.126 383.595 259.126ZM383.595 258.02C384.341 258.02 384.897 257.698 385.261 257.054C385.625 256.41 385.807 255.407 385.807 254.044C385.807 252.681 385.625 251.687 385.261 251.062C384.906 250.427 384.351 250.11 383.595 250.11C382.848 250.11 382.293 250.427 381.929 251.062C381.565 251.687 381.383 252.681 381.383 254.044C381.383 255.407 381.565 256.41 381.929 257.054C382.293 257.698 382.848 258.02 383.595 258.02ZM389.959 259C389.782 259 389.642 258.949 389.539 258.846C389.436 258.743 389.385 258.608 389.385 258.44C389.385 258.263 389.436 258.127 389.539 258.034C389.642 257.941 389.782 257.894 389.959 257.894H391.723V250.208H392.395L390.351 251.524C390.22 251.608 390.094 251.645 389.973 251.636C389.861 251.617 389.763 251.571 389.679 251.496C389.595 251.412 389.539 251.314 389.511 251.202C389.483 251.09 389.488 250.978 389.525 250.866C389.572 250.745 389.665 250.647 389.805 250.572L391.737 249.312C391.877 249.228 392.008 249.163 392.129 249.116C392.26 249.06 392.386 249.032 392.507 249.032C392.647 249.032 392.768 249.074 392.871 249.158C392.974 249.242 393.025 249.377 393.025 249.564V257.894H394.649C394.836 257.894 394.976 257.941 395.069 258.034C395.172 258.127 395.223 258.263 395.223 258.44C395.223 258.617 395.172 258.757 395.069 258.86C394.976 258.953 394.836 259 394.649 259H389.959ZM400.384 259.126C399.637 259.126 398.998 259.019 398.466 258.804C397.943 258.589 397.537 258.277 397.248 257.866C396.968 257.455 396.828 256.956 396.828 256.368C396.828 255.911 396.921 255.505 397.108 255.15C397.304 254.786 397.57 254.492 397.906 254.268C398.242 254.044 398.629 253.904 399.068 253.848V254.072C398.452 253.941 397.962 253.657 397.598 253.218C397.243 252.77 397.066 252.243 397.066 251.636C397.066 251.085 397.201 250.614 397.472 250.222C397.752 249.821 398.139 249.517 398.634 249.312C399.128 249.107 399.712 249.004 400.384 249.004C401.065 249.004 401.653 249.107 402.148 249.312C402.642 249.517 403.025 249.821 403.296 250.222C403.566 250.614 403.702 251.085 403.702 251.636C403.702 252.037 403.618 252.411 403.45 252.756C403.291 253.101 403.062 253.386 402.764 253.61C402.474 253.834 402.129 253.988 401.728 254.072V253.848C402.381 253.941 402.913 254.217 403.324 254.674C403.734 255.122 403.94 255.687 403.94 256.368C403.94 256.956 403.795 257.455 403.506 257.866C403.226 258.277 402.82 258.589 402.288 258.804C401.765 259.019 401.13 259.126 400.384 259.126ZM400.384 258.076C401.149 258.076 401.728 257.927 402.12 257.628C402.512 257.329 402.708 256.886 402.708 256.298C402.708 255.701 402.512 255.257 402.12 254.968C401.728 254.679 401.149 254.534 400.384 254.534C399.628 254.534 399.049 254.679 398.648 254.968C398.256 255.257 398.06 255.701 398.06 256.298C398.06 256.886 398.256 257.329 398.648 257.628C399.049 257.927 399.628 258.076 400.384 258.076ZM400.384 253.47C400.822 253.47 401.196 253.405 401.504 253.274C401.812 253.134 402.05 252.933 402.218 252.672C402.386 252.411 402.47 252.103 402.47 251.748C402.47 251.216 402.283 250.801 401.91 250.502C401.546 250.203 401.037 250.054 400.384 250.054C399.73 250.054 399.222 250.203 398.858 250.502C398.494 250.801 398.312 251.216 398.312 251.748C398.312 252.289 398.494 252.714 398.858 253.022C399.222 253.321 399.73 253.47 400.384 253.47Z" fill="#5041BC"/>
<path d="M476.82 259C476.596 259 476.428 258.949 476.316 258.846C476.213 258.734 476.162 258.585 476.162 258.398C476.162 258.286 476.19 258.174 476.246 258.062C476.302 257.95 476.386 257.838 476.498 257.726L479.564 254.436C480.031 253.941 480.367 253.484 480.572 253.064C480.777 252.644 480.88 252.219 480.88 251.79C480.88 251.249 480.712 250.838 480.376 250.558C480.049 250.269 479.569 250.124 478.934 250.124C478.542 250.124 478.164 250.189 477.8 250.32C477.445 250.441 477.095 250.633 476.75 250.894C476.619 250.987 476.498 251.029 476.386 251.02C476.274 251.011 476.176 250.969 476.092 250.894C476.017 250.81 475.961 250.717 475.924 250.614C475.896 250.502 475.901 250.385 475.938 250.264C475.975 250.143 476.055 250.04 476.176 249.956C476.559 249.657 477.002 249.424 477.506 249.256C478.01 249.088 478.528 249.004 479.06 249.004C479.732 249.004 480.297 249.111 480.754 249.326C481.221 249.531 481.575 249.835 481.818 250.236C482.061 250.628 482.182 251.109 482.182 251.678C482.182 252.07 482.117 252.457 481.986 252.84C481.855 253.213 481.659 253.596 481.398 253.988C481.146 254.38 480.819 254.786 480.418 255.206L477.506 258.272V257.894H482.098C482.285 257.894 482.425 257.941 482.518 258.034C482.621 258.127 482.672 258.263 482.672 258.44C482.672 258.617 482.621 258.757 482.518 258.86C482.425 258.953 482.285 259 482.098 259H476.82ZM487.595 259.126C486.456 259.126 485.588 258.692 484.991 257.824C484.403 256.947 484.109 255.691 484.109 254.058C484.109 252.947 484.239 252.019 484.501 251.272C484.771 250.525 485.163 249.961 485.677 249.578C486.199 249.195 486.839 249.004 487.595 249.004C488.743 249.004 489.611 249.433 490.199 250.292C490.787 251.141 491.081 252.392 491.081 254.044C491.081 255.136 490.945 256.06 490.675 256.816C490.413 257.572 490.026 258.146 489.513 258.538C488.999 258.93 488.36 259.126 487.595 259.126ZM487.595 258.02C488.341 258.02 488.897 257.698 489.261 257.054C489.625 256.41 489.807 255.407 489.807 254.044C489.807 252.681 489.625 251.687 489.261 251.062C488.906 250.427 488.351 250.11 487.595 250.11C486.848 250.11 486.293 250.427 485.929 251.062C485.565 251.687 485.383 252.681 485.383 254.044C485.383 255.407 485.565 256.41 485.929 257.054C486.293 257.698 486.848 258.02 487.595 258.02ZM493.959 259C493.782 259 493.642 258.949 493.539 258.846C493.436 258.743 493.385 258.608 493.385 258.44C493.385 258.263 493.436 258.127 493.539 258.034C493.642 257.941 493.782 257.894 493.959 257.894H495.723V250.208H496.395L494.351 251.524C494.22 251.608 494.094 251.645 493.973 251.636C493.861 251.617 493.763 251.571 493.679 251.496C493.595 251.412 493.539 251.314 493.511 251.202C493.483 251.09 493.488 250.978 493.525 250.866C493.572 250.745 493.665 250.647 493.805 250.572L495.737 249.312C495.877 249.228 496.008 249.163 496.129 249.116C496.26 249.06 496.386 249.032 496.507 249.032C496.647 249.032 496.768 249.074 496.871 249.158C496.974 249.242 497.025 249.377 497.025 249.564V257.894H498.649C498.836 257.894 498.976 257.941 499.069 258.034C499.172 258.127 499.223 258.263 499.223 258.44C499.223 258.617 499.172 258.757 499.069 258.86C498.976 258.953 498.836 259 498.649 259H493.959ZM503.684 259.126C503.264 259.126 502.825 259.047 502.368 258.888C501.92 258.729 501.518 258.501 501.164 258.202C501.061 258.127 500.991 258.034 500.954 257.922C500.926 257.801 500.926 257.689 500.954 257.586C500.982 257.474 501.033 257.381 501.108 257.306C501.192 257.222 501.29 257.175 501.402 257.166C501.514 257.157 501.635 257.199 501.766 257.292C502.083 257.544 502.405 257.726 502.732 257.838C503.058 257.95 503.385 258.006 503.712 258.006C504.3 258.006 504.799 257.861 505.21 257.572C505.62 257.273 505.933 256.835 506.148 256.256C506.362 255.668 506.47 254.945 506.47 254.086V252.84H506.61C506.554 253.353 506.4 253.801 506.148 254.184C505.896 254.557 505.569 254.847 505.168 255.052C504.776 255.257 504.332 255.36 503.838 255.36C503.259 255.36 502.746 255.225 502.298 254.954C501.859 254.683 501.509 254.315 501.248 253.848C500.996 253.372 500.87 252.831 500.87 252.224C500.87 251.599 501.005 251.043 501.276 250.558C501.546 250.073 501.92 249.695 502.396 249.424C502.872 249.144 503.418 249.004 504.034 249.004C504.827 249.004 505.494 249.195 506.036 249.578C506.586 249.951 507.006 250.502 507.296 251.23C507.585 251.949 507.73 252.817 507.73 253.834C507.73 254.693 507.636 255.449 507.45 256.102C507.272 256.755 507.006 257.306 506.652 257.754C506.306 258.202 505.882 258.543 505.378 258.776C504.883 259.009 504.318 259.126 503.684 259.126ZM504.132 254.282C504.524 254.282 504.869 254.193 505.168 254.016C505.476 253.829 505.714 253.577 505.882 253.26C506.05 252.943 506.134 252.579 506.134 252.168C506.134 251.748 506.05 251.384 505.882 251.076C505.714 250.759 505.476 250.511 505.168 250.334C504.869 250.157 504.524 250.068 504.132 250.068C503.73 250.068 503.38 250.157 503.082 250.334C502.783 250.511 502.545 250.759 502.368 251.076C502.2 251.384 502.116 251.748 502.116 252.168C502.116 252.579 502.2 252.943 502.368 253.26C502.545 253.577 502.783 253.829 503.082 254.016C503.38 254.193 503.73 254.282 504.132 254.282Z" fill="#5041BC"/>
<path d="M580.82 259C580.596 259 580.428 258.949 580.316 258.846C580.213 258.734 580.162 258.585 580.162 258.398C580.162 258.286 580.19 258.174 580.246 258.062C580.302 257.95 580.386 257.838 580.498 257.726L583.564 254.436C584.031 253.941 584.367 253.484 584.572 253.064C584.777 252.644 584.88 252.219 584.88 251.79C584.88 251.249 584.712 250.838 584.376 250.558C584.049 250.269 583.569 250.124 582.934 250.124C582.542 250.124 582.164 250.189 581.8 250.32C581.445 250.441 581.095 250.633 580.75 250.894C580.619 250.987 580.498 251.029 580.386 251.02C580.274 251.011 580.176 250.969 580.092 250.894C580.017 250.81 579.961 250.717 579.924 250.614C579.896 250.502 579.901 250.385 579.938 250.264C579.975 250.143 580.055 250.04 580.176 249.956C580.559 249.657 581.002 249.424 581.506 249.256C582.01 249.088 582.528 249.004 583.06 249.004C583.732 249.004 584.297 249.111 584.754 249.326C585.221 249.531 585.575 249.835 585.818 250.236C586.061 250.628 586.182 251.109 586.182 251.678C586.182 252.07 586.117 252.457 585.986 252.84C585.855 253.213 585.659 253.596 585.398 253.988C585.146 254.38 584.819 254.786 584.418 255.206L581.506 258.272V257.894H586.098C586.285 257.894 586.425 257.941 586.518 258.034C586.621 258.127 586.672 258.263 586.672 258.44C586.672 258.617 586.621 258.757 586.518 258.86C586.425 258.953 586.285 259 586.098 259H580.82ZM591.595 259.126C590.456 259.126 589.588 258.692 588.991 257.824C588.403 256.947 588.109 255.691 588.109 254.058C588.109 252.947 588.239 252.019 588.501 251.272C588.771 250.525 589.163 249.961 589.677 249.578C590.199 249.195 590.839 249.004 591.595 249.004C592.743 249.004 593.611 249.433 594.199 250.292C594.787 251.141 595.081 252.392 595.081 254.044C595.081 255.136 594.945 256.06 594.675 256.816C594.413 257.572 594.026 258.146 593.513 258.538C592.999 258.93 592.36 259.126 591.595 259.126ZM591.595 258.02C592.341 258.02 592.897 257.698 593.261 257.054C593.625 256.41 593.807 255.407 593.807 254.044C593.807 252.681 593.625 251.687 593.261 251.062C592.906 250.427 592.351 250.11 591.595 250.11C590.848 250.11 590.293 250.427 589.929 251.062C589.565 251.687 589.383 252.681 589.383 254.044C589.383 255.407 589.565 256.41 589.929 257.054C590.293 257.698 590.848 258.02 591.595 258.02ZM597.609 259C597.385 259 597.217 258.949 597.105 258.846C597.002 258.734 596.951 258.585 596.951 258.398C596.951 258.286 596.979 258.174 597.035 258.062C597.091 257.95 597.175 257.838 597.287 257.726L600.353 254.436C600.82 253.941 601.156 253.484 601.361 253.064C601.566 252.644 601.669 252.219 601.669 251.79C601.669 251.249 601.501 250.838 601.165 250.558C600.838 250.269 600.358 250.124 599.723 250.124C599.331 250.124 598.953 250.189 598.589 250.32C598.234 250.441 597.884 250.633 597.539 250.894C597.408 250.987 597.287 251.029 597.175 251.02C597.063 251.011 596.965 250.969 596.881 250.894C596.806 250.81 596.75 250.717 596.713 250.614C596.685 250.502 596.69 250.385 596.727 250.264C596.764 250.143 596.844 250.04 596.965 249.956C597.348 249.657 597.791 249.424 598.295 249.256C598.799 249.088 599.317 249.004 599.849 249.004C600.521 249.004 601.086 249.111 601.543 249.326C602.01 249.531 602.364 249.835 602.607 250.236C602.85 250.628 602.971 251.109 602.971 251.678C602.971 252.07 602.906 252.457 602.775 252.84C602.644 253.213 602.448 253.596 602.187 253.988C601.935 254.38 601.608 254.786 601.207 255.206L598.295 258.272V257.894H602.887C603.074 257.894 603.214 257.941 603.307 258.034C603.41 258.127 603.461 258.263 603.461 258.44C603.461 258.617 603.41 258.757 603.307 258.86C603.214 258.953 603.074 259 602.887 259H597.609ZM608.384 259.126C607.245 259.126 606.377 258.692 605.78 257.824C605.192 256.947 604.898 255.691 604.898 254.058C604.898 252.947 605.028 252.019 605.29 251.272C605.56 250.525 605.952 249.961 606.466 249.578C606.988 249.195 607.628 249.004 608.384 249.004C609.532 249.004 610.4 249.433 610.988 250.292C611.576 251.141 611.87 252.392 611.87 254.044C611.87 255.136 611.734 256.06 611.464 256.816C611.202 257.572 610.815 258.146 610.302 258.538C609.788 258.93 609.149 259.126 608.384 259.126ZM608.384 258.02C609.13 258.02 609.686 257.698 610.05 257.054C610.414 256.41 610.596 255.407 610.596 254.044C610.596 252.681 610.414 251.687 610.05 251.062C609.695 250.427 609.14 250.11 608.384 250.11C607.637 250.11 607.082 250.427 606.718 251.062C606.354 251.687 606.172 252.681 606.172 254.044C606.172 255.407 606.354 256.41 606.718 257.054C607.082 257.698 607.637 258.02 608.384 258.02Z" fill="#5041BC"/>
</g>
<defs>
<filter id="filter0_d_1_191" x="39.9996" y="85" width="630" height="137" filterUnits="userSpaceOnUse" color-interpolation-filters="sRGB">
<feFlood flood-opacity="0" result="BackgroundImageFix"/>
<feColorMatrix in="SourceAlpha" type="matrix" values="0 0 0 0 0 0 0 0 0 0 0 0 0 0 0 0 0 0 127 0" result="hardAlpha"/>
<feOffset dy="10"/>
<feGaussianBlur stdDeviation="9"/>
<feColorMatrix type="matrix" values="0 0 0 0 0.313726 0 0 0 0 0.254902 0 0 0 0 0.737255 0 0 0 1 0"/>
<feBlend mode="normal" in2="BackgroundImageFix" result="effect1_dropShadow_1_191"/>
<feBlend mode="normal" in="SourceGraphic" in2="effect1_dropShadow_1_191" result="shape"/>
</filter>
<linearGradient id="paint0_linear_1_191" x1="-88.0756" y1="95.6522" x2="-86.724" y2="240.789" gradientUnits="userSpaceOnUse">
<stop stop-color="#C5BDFE" stop-opacity="0.450803"/>
<stop offset="1" stop-color="#5041BC" stop-opacity="0.01"/>
</linearGradient>
<linearGradient id="paint1_linear_1_191" x1="420" y1="70" x2="382.586" y2="113.161" gradientUnits="userSpaceOnUse">
<stop stop-color="#3D29D0"/>
<stop offset="1" stop-color="#C25FFF"/>
</linearGradient>
</defs>
</svg>
