<svg width="16" height="15" viewBox="0 0 16 15" fill="none" xmlns="http://www.w3.org/2000/svg">
<path fill-rule="evenodd" clip-rule="evenodd" d="M11.6 0C14.0304 0 16 2.02703 16 4.86486C16 10.5405 10 13.7838 8 15C6.4176 14.0376 2.3328 11.8078 0.6944 8.10811H4.4528L5.2 6.84649L7.6 10.9005L9.2528 8.10811H12V6.48649H8.3472L7.6 7.74811L5.2 3.69405L3.5472 6.48649H0.168C0.0592 5.97 0 5.42919 0 4.86486C0 2.02703 2 0 4.4 0C5.888 0 7.2 0.810811 8 1.62162C8.8 0.810811 10.112 0 11.6 0Z" fill="white"/>
</svg>
