<svg width="23" height="23" viewBox="0 0 23 23" fill="none" xmlns="http://www.w3.org/2000/svg">
<path d="M1 22C1 19.8783 1.84285 17.8434 3.34315 16.3431C4.84344 14.8429 6.87827 14 9 14C11.1217 14 13.1566 14.8429 14.6569 16.3431C16.1571 17.8434 17 19.8783 17 22H1ZM9 13C5.685 13 3 10.315 3 7C3 3.685 5.685 1 9 1C12.315 1 15 3.685 15 7C15 10.315 12.315 13 9 13Z" stroke="#04103B" stroke-width="2" stroke-linecap="round" stroke-linejoin="round"/>
<path d="M16 2C18.4862 2 20.5 4.42929 20.5 7.42857C20.5 10.4279 18.4862 12.7619 16 12.7619C17.5913 12.7619 19.1174 13.5245 20.2426 14.8819C21.3679 16.2393 22 18.0803 22 20H19.4286" stroke="#04103B" stroke-width="2" stroke-linecap="round" stroke-linejoin="round"/>
</svg>
