<svg width="118" height="29" viewBox="0 0 118 29" fill="none" xmlns="http://www.w3.org/2000/svg">
<path d="M21.692 0.675998L17.072 28H5.456L0.528 0.675998H8.844L11.22 18.584H11.968L13.772 0.675998H21.692ZM38.9348 28H24.1508V0.675998H39.3748L38.9348 7.408H31.6748V11.5H37.9668V17.308H31.6748V21.84H39.3748L38.9348 28ZM61.8719 28H54.6559L48.9799 15.284H48.6279V28H41.9399V0.675998H49.3759L54.7879 13.788H55.1399V0.675998H61.8719V28ZM81.6286 7.32H76.5246V28H69.0006V7.32H63.5886L64.0286 0.675998H82.0686L81.6286 7.32ZM98.5755 28H83.7915V0.675998H99.0155L98.5755 7.408H91.3155V11.5H97.6075V17.308H91.3155V21.84H99.0155L98.5755 28ZM100.349 8.904C100.349 6.29333 101.111 4.196 102.637 2.612C104.162 1.028 106.245 0.235998 108.885 0.235998C111.554 0.235998 114.282 0.499998 117.069 1.028L116.189 8.068C113.285 7.39333 111.29 7.056 110.205 7.056C108.826 7.056 108.137 7.61333 108.137 8.728C108.137 9.168 108.459 9.59333 109.105 10.004C109.779 10.4147 110.586 10.8547 111.525 11.324C112.463 11.764 113.402 12.3067 114.341 12.952C115.279 13.568 116.071 14.4627 116.717 15.636C117.391 16.8093 117.729 18.1587 117.729 19.684C117.729 22.4707 116.981 24.6267 115.485 26.152C113.989 27.6773 111.862 28.44 109.105 28.44C106.377 28.44 103.707 28.0147 101.097 27.164L101.581 20.608C104.719 21.5173 106.905 21.972 108.137 21.972C109.369 21.972 109.985 21.4293 109.985 20.344C109.985 19.7867 109.647 19.2733 108.973 18.804C108.327 18.3347 107.535 17.8653 106.597 17.396C105.658 16.9267 104.705 16.384 103.737 15.768C102.798 15.152 101.991 14.2573 101.317 13.084C100.671 11.9107 100.349 10.5173 100.349 8.904Z" fill="white"/>
</svg>
