<svg width="20" height="20" viewBox="0 0 20 20" fill="none" xmlns="http://www.w3.org/2000/svg">
<path fill-rule="evenodd" clip-rule="evenodd" d="M7.37124 4.08925C8.98802 4.47807 10.2116 5.71999 10.4879 7.25326C10.5196 7.42851 10.6826 7.55273 10.8674 7.55273C10.8886 7.55273 10.91 7.55116 10.9316 7.54769C11.1416 7.51482 11.2832 7.3297 11.2479 7.13431C10.921 5.32193 9.47499 3.85377 7.56358 3.39435C7.35739 3.34466 7.14735 3.46008 7.09425 3.65221C7.04133 3.8439 7.16523 4.03973 7.37124 4.08925Z" fill="#5041BC"/>
<path fill-rule="evenodd" clip-rule="evenodd" d="M12.8604 14.7973C12.5849 14.5217 12.4331 14.1552 12.4331 13.7656C12.4331 13.5007 12.5034 13.2465 12.6348 13.0243L11.443 11.8329C10.347 12.8077 8.90426 13.401 7.32527 13.401C3.90541 13.401 1.12305 10.6194 1.12305 7.20051C1.12305 3.7816 3.90541 1 7.32527 1C10.7451 1 13.5275 3.7816 13.5275 7.20051C13.5275 8.77906 12.9341 10.2212 11.9589 11.3171L13.151 12.5085C13.3732 12.377 13.6273 12.3066 13.8922 12.3066C14.2821 12.3066 14.6487 12.4584 14.9241 12.734L18.5725 16.3813C18.8481 16.6569 19 17.0232 19 17.413C19 17.8025 18.8481 18.169 18.5725 18.4446C18.2881 18.7291 17.9144 18.8711 17.5406 18.8711C17.1669 18.8711 16.7933 18.7291 16.5087 18.4446L12.8604 14.7973ZM7.32527 1.72952C4.30781 1.72952 1.85277 4.18383 1.85277 7.20051C1.85277 10.2171 4.30781 12.6715 7.32527 12.6715C10.3428 12.6715 12.7978 10.2171 12.7978 7.20051C12.7978 4.18383 10.3428 1.72952 7.32527 1.72952ZM13.3763 14.2814L17.0247 17.9288C17.3092 18.2133 17.7722 18.213 18.0567 17.9288C18.1943 17.791 18.2703 17.6078 18.2703 17.413C18.2703 17.2182 18.1943 17.035 18.0567 16.8972L14.4084 13.2498C14.2706 13.112 14.0873 13.0361 13.8924 13.0361C13.6974 13.0361 13.5142 13.112 13.3763 13.2498C13.2385 13.3876 13.1628 13.5708 13.1628 13.7656C13.1628 13.9604 13.2385 14.1436 13.3763 14.2814Z" fill="#5041BC"/>
<path d="M12.8604 14.7973L12.5069 15.1509L12.5067 15.1507L12.8604 14.7973ZM12.6348 13.0243L12.9883 12.6707L13.2626 12.9449L13.0652 13.2788L12.6348 13.0243ZM11.443 11.8329L11.1108 11.4593L11.4631 11.1459L11.7965 11.4793L11.443 11.8329ZM11.9589 11.3171L11.6055 11.6707L11.2718 11.3372L11.5854 10.9847L11.9589 11.3171ZM13.151 12.5085L13.4057 12.9388L13.0719 13.1364L12.7975 12.8622L13.151 12.5085ZM14.9241 12.734L14.5706 13.0876L14.5705 13.0875L14.9241 12.734ZM18.5725 16.3813L18.219 16.7349H18.219L18.5725 16.3813ZM18.5725 18.4446L18.2188 18.0911L18.219 18.091L18.5725 18.4446ZM16.5087 18.4446L16.8622 18.091L16.5087 18.4446ZM13.3763 14.2814L13.0228 14.6351L13.3763 14.2814ZM17.0247 17.9288L16.6712 18.2824L17.0247 17.9288ZM18.0567 17.9288L18.4105 18.2821L18.4101 18.2825L18.0567 17.9288ZM18.0567 16.8972L18.4102 16.5435L18.4105 16.5438L18.0567 16.8972ZM14.4084 13.2498L14.7619 12.8962L14.4084 13.2498ZM12.5067 15.1507C12.1377 14.7814 11.9331 14.2879 11.9331 13.7656H12.9331C12.9331 14.0225 13.0322 14.2619 13.214 14.4438L12.5067 15.1507ZM11.9331 13.7656C11.9331 13.4114 12.0274 13.0692 12.2044 12.7698L13.0652 13.2788C12.9794 13.4238 12.9331 13.5901 12.9331 13.7656H11.9331ZM12.2813 13.3779L11.0895 12.1865L11.7965 11.4793L12.9883 12.6707L12.2813 13.3779ZM11.7753 12.2065C10.5917 13.2592 9.03191 13.901 7.32527 13.901V12.901C8.77661 12.901 10.1023 12.3562 11.1108 11.4593L11.7753 12.2065ZM7.32527 13.901C3.6294 13.901 0.623047 10.8957 0.623047 7.20051H1.62305C1.62305 10.3431 4.18143 12.901 7.32527 12.901V13.901ZM0.623047 7.20051C0.623047 3.50533 3.6294 0.5 7.32527 0.5V1.5C4.18143 1.5 1.62305 4.05787 1.62305 7.20051H0.623047ZM7.32527 0.5C11.0211 0.5 14.0275 3.50533 14.0275 7.20051H13.0275C13.0275 4.05787 10.4691 1.5 7.32527 1.5V0.5ZM14.0275 7.20051C14.0275 8.9068 13.3855 10.466 12.3325 11.6495L11.5854 10.9847C12.4826 9.9764 13.0275 8.65132 13.0275 7.20051H14.0275ZM12.3124 10.9634L13.5044 12.1549L12.7975 12.8622L11.6055 11.6707L12.3124 10.9634ZM12.8963 12.0782C13.1957 11.901 13.5378 11.8066 13.8922 11.8066V12.8066C13.7167 12.8066 13.5506 12.853 13.4057 12.9388L12.8963 12.0782ZM13.8922 11.8066C14.4147 11.8066 14.9085 12.0111 15.2778 12.3806L14.5705 13.0875C14.3889 12.9058 14.1496 12.8066 13.8922 12.8066V11.8066ZM15.2776 12.3804L18.926 16.0277L18.219 16.7349L14.5706 13.0876L15.2776 12.3804ZM18.926 16.0277C19.2954 16.397 19.5 16.8904 19.5 17.413H18.5C18.5 17.1559 18.4009 16.9169 18.219 16.7349L18.926 16.0277ZM19.5 17.413C19.5 17.9353 19.2954 18.4289 18.926 18.7982L18.219 18.091C18.4009 17.9091 18.5 17.6698 18.5 17.413H19.5ZM18.9261 18.798C18.5437 19.1806 18.0409 19.3711 17.5406 19.3711V18.3711C17.788 18.3711 18.0325 18.2775 18.2188 18.0911L18.9261 18.798ZM17.5406 19.3711C17.0404 19.3711 16.5377 19.1806 16.1552 18.7982L16.8622 18.091C17.0488 18.2776 17.2935 18.3711 17.5406 18.3711V19.3711ZM16.1552 18.7982L12.5069 15.1509L13.2139 14.4437L16.8622 18.091L16.1552 18.7982ZM7.32527 2.22952C4.58382 2.22952 2.35277 4.46011 2.35277 7.20051H1.35277C1.35277 3.90755 4.03181 1.22952 7.32527 1.22952V2.22952ZM2.35277 7.20051C2.35277 9.94086 4.58383 12.1715 7.32527 12.1715V13.1715C4.0318 13.1715 1.35277 10.4934 1.35277 7.20051H2.35277ZM7.32527 12.1715C10.0668 12.1715 12.2978 9.94086 12.2978 7.20051H13.2978C13.2978 10.4934 10.6188 13.1715 7.32527 13.1715V12.1715ZM12.2978 7.20051C12.2978 4.4601 10.0668 2.22952 7.32527 2.22952V1.22952C10.6188 1.22952 13.2978 3.90756 13.2978 7.20051H12.2978ZM13.7298 13.9278L17.3782 17.5752L16.6712 18.2824L13.0228 14.6351L13.7298 13.9278ZM17.3782 17.5752C17.4673 17.6643 17.6138 17.6645 17.7034 17.575L18.4101 18.2825C17.9305 18.7616 17.1512 18.7622 16.6712 18.2824L17.3782 17.5752ZM17.7029 17.5755C17.7471 17.5313 17.7703 17.4751 17.7703 17.413H18.7703C18.7703 17.7404 18.6416 18.0507 18.4105 18.2821L17.7029 17.5755ZM17.7703 17.413C17.7703 17.3508 17.7471 17.2946 17.7029 17.2505L18.4105 16.5438C18.6416 16.7753 18.7703 17.0855 18.7703 17.413H17.7703ZM17.7032 17.2508L14.0549 13.6034L14.7619 12.8962L18.4102 16.5435L17.7032 17.2508ZM14.0549 13.6034C14.0108 13.5593 13.9547 13.5361 13.8924 13.5361V12.5361C14.2199 12.5361 14.5303 12.6647 14.7619 12.8962L14.0549 13.6034ZM13.8924 13.5361C13.83 13.5361 13.7739 13.5594 13.7298 13.6034L13.0228 12.8962C13.2544 12.6647 13.5648 12.5361 13.8924 12.5361V13.5361ZM13.7298 13.6034C13.686 13.6472 13.6628 13.7032 13.6628 13.7656H12.6628C12.6628 13.4385 12.791 13.128 13.0228 12.8962L13.7298 13.6034ZM13.6628 13.7656C13.6628 13.8281 13.686 13.884 13.7298 13.9278L13.0228 14.6351C12.791 14.4033 12.6628 14.0927 12.6628 13.7656H13.6628Z" fill="#5041BC"/>
</svg>
